<?xml version='1.0' encoding='UTF-8' standalone='no'?>
<!-- Created with Fritzing (http://www.fritzing.org/) -->
<svg xmlns="http://www.w3.org/2000/svg" width="1.80332in" x="0in" version="1.2" y="0in"  height="1.62961in" viewBox="0 0 129.839 117.332" baseProfile="tiny" xmlns:svg="http://www.w3.org/2000/svg">
 <g  id="watermark">
  <g >
   <path fill="#8C8C8C"  d="M22.022,115.004L20.097,109.44L20.062,109.44c0.017,0.214,0.032,0.427,0.044,0.64c0.012,0.183,0.021,0.375,0.028,0.574c0.007,0.203,0.011,0.385,0.011,0.551l0,3.8L19.397,115.005L19.397,108.649l1.199,0l1.791,5.181l0.025,0l1.8,-5.181L25.412,108.649l0,6.354L24.603,115.003l0,-3.854c0,-0.15,0.003,-0.324,0.009,-0.518s0.013,-0.38,0.021,-0.557c0.012,-0.207,0.021,-0.416,0.029,-0.625L24.63,109.449L22.686,115.004L22.022,115.004z"/>
   <path fill="#8C8C8C"  d="M29.722,115.004l-0.16,-0.661l-0.035,0c-0.095,0.131,-0.19,0.243,-0.286,0.338c-0.095,0.095,-0.2,0.172,-0.313,0.231c-0.113,0.062,-0.239,0.106,-0.378,0.136c-0.141,0.028,-0.3,0.042,-0.482,0.042c-0.2,0,-0.384,-0.026,-0.552,-0.084c-0.168,-0.057,-0.314,-0.144,-0.438,-0.261c-0.122,-0.116,-0.219,-0.265,-0.288,-0.443S26.686,113.914,26.686,113.669c0,-0.475,0.167,-0.841,0.501,-1.095c0.335,-0.256,0.845,-0.394,1.528,-0.418l0.799,-0.029l0,-0.301c0,-0.193,-0.021,-0.356,-0.063,-0.486s-0.103,-0.234,-0.183,-0.314s-0.178,-0.138,-0.295,-0.172c-0.117,-0.035,-0.251,-0.052,-0.402,-0.052c-0.241,0,-0.464,0.034,-0.671,0.104c-0.207,0.068,-0.407,0.152,-0.597,0.25L27.024,110.563c0.214,-0.117,0.453,-0.217,0.717,-0.298c0.264,-0.079,0.54,-0.12,0.83,-0.12c0.296,0,0.551,0.029,0.768,0.09c0.216,0.059,0.395,0.151,0.534,0.28c0.141,0.13,0.247,0.294,0.316,0.494c0.07,0.199,0.104,0.44,0.104,0.726l0,3.269L29.722,115.004L29.722,115.004zM28.271,114.453c0.178,0,0.341,-0.028,0.491,-0.084c0.149,-0.055,0.282,-0.138,0.391,-0.249c0.11,-0.111,0.196,-0.252,0.258,-0.422c0.063,-0.17,0.094,-0.369,0.094,-0.599l0,-0.43l-0.621,0.03c-0.262,0.012,-0.48,0.041,-0.656,0.086c-0.175,0.047,-0.317,0.113,-0.423,0.193c-0.105,0.084,-0.183,0.185,-0.229,0.301c-0.046,0.117,-0.068,0.25,-0.068,0.398c0,0.268,0.069,0.462,0.211,0.586C27.858,114.39,28.042,114.453,28.271,114.453z"/>
   <path fill="#8C8C8C"  d="M34.704,114.365l-0.034,0c-0.063,0.099,-0.139,0.191,-0.224,0.281c-0.085,0.088,-0.184,0.165,-0.296,0.231c-0.111,0.066,-0.237,0.118,-0.376,0.156c-0.139,0.037,-0.295,0.056,-0.47,0.056c-0.271,0,-0.517,-0.051,-0.738,-0.154c-0.223,-0.105,-0.416,-0.262,-0.575,-0.469s-0.282,-0.464,-0.369,-0.771c-0.087,-0.309,-0.13,-0.664,-0.13,-1.069c0,-0.408,0.043,-0.767,0.13,-1.076c0.086,-0.31,0.209,-0.567,0.369,-0.774c0.159,-0.209,0.352,-0.367,0.575,-0.473c0.222,-0.105,0.469,-0.158,0.738,-0.158c0.171,0,0.327,0.02,0.466,0.057s0.264,0.088,0.376,0.152c0.112,0.063,0.211,0.137,0.297,0.221s0.163,0.172,0.227,0.266l0.052,0c-0.009,-0.1,-0.018,-0.191,-0.026,-0.283c-0.006,-0.074,-0.012,-0.152,-0.018,-0.232c-0.005,-0.078,-0.009,-0.143,-0.009,-0.188L34.669,108.241l0.792,0l0,6.763l-0.641,0L34.704,114.365zM33.456,114.436c0.221,0,0.407,-0.033,0.56,-0.102c0.151,-0.065,0.274,-0.168,0.37,-0.304c0.094,-0.136,0.163,-0.308,0.209,-0.512c0.044,-0.204,0.069,-0.442,0.076,-0.716l0,-0.177c0,-0.292,-0.02,-0.552,-0.059,-0.78c-0.04,-0.229,-0.105,-0.418,-0.2,-0.574c-0.094,-0.154,-0.219,-0.271,-0.376,-0.351c-0.156,-0.08,-0.352,-0.119,-0.586,-0.119c-0.391,0,-0.679,0.157,-0.861,0.474c-0.185,0.315,-0.277,0.771,-0.277,1.359c0,0.605,0.092,1.058,0.277,1.354C32.769,114.286,33.059,114.436,33.456,114.436z"/>
   <path fill="#8C8C8C"  d="M38.858,115.09c-0.318,0,-0.609,-0.053,-0.874,-0.16c-0.263,-0.106,-0.49,-0.264,-0.68,-0.469c-0.19,-0.207,-0.338,-0.461,-0.442,-0.766c-0.104,-0.306,-0.156,-0.651,-0.156,-1.045s0.049,-0.744,0.144,-1.055c0.096,-0.311,0.229,-0.574,0.405,-0.789c0.174,-0.216,0.382,-0.381,0.623,-0.492c0.241,-0.113,0.51,-0.17,0.802,-0.17c0.287,0,0.545,0.051,0.772,0.153c0.229,0.104,0.423,0.248,0.583,0.435c0.159,0.188,0.282,0.412,0.367,0.674c0.087,0.263,0.13,0.554,0.13,0.873l0,0.49l-3.008,0c0.015,0.559,0.133,0.971,0.354,1.234c0.222,0.263,0.551,0.396,0.987,0.396c0.149,0,0.285,-0.008,0.411,-0.021s0.248,-0.035,0.365,-0.063c0.118,-0.026,0.23,-0.063,0.342,-0.104s0.222,-0.089,0.334,-0.142l0,0.704c-0.116,0.055,-0.229,0.104,-0.341,0.144c-0.112,0.041,-0.226,0.074,-0.343,0.102c-0.117,0.024,-0.239,0.045,-0.365,0.056S39.007,115.09,38.858,115.09zM38.663,110.802c-0.331,0,-0.592,0.112,-0.783,0.339c-0.193,0.227,-0.307,0.555,-0.338,0.985l2.14,0c0,-0.196,-0.021,-0.378,-0.06,-0.541c-0.039,-0.164,-0.1,-0.304,-0.183,-0.419s-0.187,-0.205,-0.315,-0.27C38.996,110.832,38.843,110.802,38.663,110.802z"/>
   <path fill="#8C8C8C"  d="M47.672,115.004l-0.729,-2.678c-0.012,-0.053,-0.026,-0.111,-0.044,-0.176c-0.017,-0.065,-0.034,-0.136,-0.051,-0.207c-0.019,-0.072,-0.036,-0.146,-0.055,-0.223c-0.02,-0.074,-0.037,-0.148,-0.055,-0.222c-0.041,-0.169,-0.083,-0.341,-0.126,-0.521l-0.024,0c-0.041,0.182,-0.08,0.356,-0.117,0.524c-0.032,0.146,-0.066,0.294,-0.104,0.448c-0.037,0.152,-0.069,0.283,-0.103,0.391l-0.75,2.66l-0.917,0l-1.221,-4.771l0.83,0l0.57,2.539c0.029,0.129,0.059,0.27,0.086,0.423c0.028,0.151,0.057,0.303,0.082,0.452c0.026,0.148,0.05,0.288,0.07,0.421c0.02,0.132,0.037,0.238,0.049,0.322l0.025,0c0.015,-0.074,0.034,-0.177,0.059,-0.302c0.025,-0.126,0.052,-0.26,0.083,-0.399c0.031,-0.141,0.063,-0.28,0.093,-0.417c0.032,-0.139,0.063,-0.254,0.091,-0.351l0.778,-2.69l0.853,0l0.748,2.69c0.025,0.098,0.056,0.215,0.089,0.348c0.033,0.135,0.065,0.27,0.098,0.407c0.032,0.139,0.061,0.271,0.087,0.397c0.025,0.127,0.045,0.231,0.056,0.315l0.026,0c0.01,-0.074,0.022,-0.177,0.042,-0.302c0.02,-0.126,0.042,-0.265,0.067,-0.415c0.025,-0.149,0.054,-0.306,0.084,-0.464c0.03,-0.157,0.062,-0.306,0.094,-0.44L49.032,110.231l0.809,0l-1.234,4.771L47.672,115.002L47.672,115.004z"/>
   <path fill="#8C8C8C"  d="M50.627,108.941c0,-0.175,0.045,-0.3,0.133,-0.379c0.088,-0.078,0.197,-0.117,0.328,-0.117c0.063,0,0.123,0.011,0.181,0.028c0.056,0.019,0.104,0.049,0.147,0.089c0.042,0.041,0.075,0.092,0.101,0.154c0.023,0.063,0.037,0.137,0.037,0.224c0,0.168,-0.045,0.293,-0.138,0.376c-0.092,0.083,-0.2,0.123,-0.327,0.123c-0.131,0,-0.24,-0.04,-0.328,-0.12C50.673,109.238,50.627,109.111,50.627,108.941zM51.479,115.004l-0.791,0L50.688,110.231l0.791,0L51.479,115.004z"/>
   <path fill="#8C8C8C"  d="M54.435,114.443c0.052,0,0.111,-0.003,0.176,-0.01c0.066,-0.006,0.128,-0.013,0.189,-0.021c0.061,-0.009,0.116,-0.019,0.167,-0.031c0.051,-0.011,0.089,-0.021,0.115,-0.028l0,0.6c-0.037,0.017,-0.085,0.035,-0.144,0.052c-0.059,0.018,-0.122,0.033,-0.191,0.046c-0.068,0.015,-0.142,0.022,-0.217,0.03s-0.148,0.011,-0.221,0.011c-0.18,0,-0.347,-0.021,-0.5,-0.068c-0.153,-0.048,-0.286,-0.126,-0.397,-0.239c-0.111,-0.112,-0.198,-0.267,-0.263,-0.458c-0.063,-0.192,-0.095,-0.437,-0.095,-0.729L53.054,110.827l-0.674,0L52.38,110.475l0.673,-0.339l0.339,-0.999l0.456,0l0,1.096l1.199,0l0,0.596l-1.199,0l0,2.769c0,0.281,0.045,0.492,0.137,0.636C54.077,114.372,54.226,114.443,54.435,114.443z"/>
   <path fill="#8C8C8C"  d="M58.99,115.004l0,-3.073c0,-0.377,-0.076,-0.659,-0.228,-0.848c-0.152,-0.188,-0.391,-0.282,-0.715,-0.282c-0.234,0,-0.433,0.037,-0.592,0.111c-0.158,0.076,-0.286,0.188,-0.384,0.336c-0.097,0.148,-0.166,0.328,-0.208,0.544c-0.042,0.214,-0.063,0.461,-0.063,0.739l0,2.473l-0.791,0L56.009,108.241l0.791,0l0,2.008l-0.034,0.626l0.044,0c0.072,-0.124,0.158,-0.232,0.258,-0.323s0.209,-0.167,0.328,-0.229c0.118,-0.061,0.245,-0.104,0.378,-0.135c0.133,-0.027,0.27,-0.043,0.408,-0.043c0.531,0,0.93,0.139,1.198,0.416c0.268,0.275,0.401,0.719,0.401,1.326l0,3.117L58.99,115.004L58.99,115.004z"/>
  </g>
  <g >
   <path fill="#8C8C8C"  d="M80.75,114.988l-1.324,0L79.426,108.634l3.642,0l0,1.104l-2.316,0l0,1.639l2.156,0l0,1.1l-2.156,0L80.75,114.988L80.75,114.988z"/>
   <path fill="#8C8C8C"  d="M86.783,110.038c0.035,0,0.074,0.002,0.116,0.002c0.042,0.002,0.083,0.006,0.12,0.01c0.041,0.005,0.076,0.009,0.11,0.014c0.031,0.004,0.059,0.01,0.075,0.016l0,1.244c-0.022,-0.008,-0.056,-0.012,-0.095,-0.018c-0.04,-0.007,-0.083,-0.012,-0.128,-0.018c-0.045,-0.004,-0.09,-0.006,-0.133,-0.008c-0.044,-0.002,-0.08,-0.002,-0.108,-0.002c-0.171,0,-0.328,0.021,-0.472,0.064c-0.146,0.043,-0.269,0.113,-0.37,0.211s-0.183,0.225,-0.239,0.383c-0.057,0.157,-0.084,0.352,-0.084,0.581l0,2.474l-1.326,0L84.249,110.129l1.005,0l0.194,0.73l0.066,0c0.068,-0.125,0.145,-0.238,0.226,-0.34c0.081,-0.103,0.172,-0.189,0.272,-0.259c0.1,-0.071,0.212,-0.126,0.338,-0.165C86.476,110.058,86.622,110.038,86.783,110.038z"/>
   <path fill="#8C8C8C"  d="M88.101,108.873c0,-0.125,0.018,-0.228,0.056,-0.311c0.038,-0.084,0.089,-0.15,0.154,-0.2c0.065,-0.051,0.142,-0.086,0.229,-0.106c0.088,-0.02,0.184,-0.03,0.281,-0.03c0.099,0,0.191,0.01,0.277,0.03c0.088,0.02,0.164,0.055,0.229,0.106c0.066,0.05,0.117,0.116,0.156,0.2c0.04,0.083,0.059,0.186,0.059,0.311c0,0.122,-0.019,0.225,-0.059,0.309c-0.039,0.084,-0.09,0.151,-0.156,0.203c-0.063,0.05,-0.142,0.086,-0.229,0.108c-0.086,0.021,-0.18,0.032,-0.277,0.032c-0.099,0,-0.191,-0.012,-0.281,-0.032c-0.088,-0.021,-0.164,-0.059,-0.229,-0.108c-0.065,-0.051,-0.116,-0.119,-0.154,-0.203C88.12,109.098,88.101,108.995,88.101,108.873zM89.483,114.988l-1.325,0L88.158,110.129l1.325,0L89.483,114.988z"/>
   <path fill="#8C8C8C"  d="M92.892,114.019c0.13,0,0.254,-0.016,0.371,-0.045c0.117,-0.027,0.235,-0.064,0.357,-0.107l0,0.986c-0.124,0.063,-0.278,0.116,-0.463,0.157c-0.184,0.042,-0.385,0.063,-0.603,0.063c-0.211,0,-0.408,-0.024,-0.59,-0.073c-0.185,-0.05,-0.342,-0.137,-0.476,-0.259c-0.133,-0.123,-0.237,-0.288,-0.313,-0.495c-0.077,-0.208,-0.114,-0.468,-0.114,-0.781L91.061,111.124l-0.636,0L90.425,110.563l0.729,-0.443l0.383,-1.024l0.848,0l0,1.034l1.184,0l0,0.995l-1.184,0l0,2.343c0,0.188,0.048,0.327,0.141,0.417C92.619,113.974,92.741,114.019,92.892,114.019z"/>
   <path fill="#8C8C8C"  d="M97.765,114.988L94.192,114.988l0,-0.781l1.985,-3.064l-1.853,0L94.324,110.129l3.355,0l0,0.859l-1.92,2.985l2.004,0L97.765,114.988L97.765,114.988z"/>
   <path fill="#8C8C8C"  d="M98.704,108.873c0,-0.125,0.02,-0.228,0.057,-0.311c0.038,-0.084,0.09,-0.15,0.153,-0.2c0.065,-0.051,0.144,-0.086,0.23,-0.106s0.182,-0.03,0.28,-0.03c0.098,0,0.19,0.01,0.277,0.03c0.088,0.02,0.164,0.055,0.229,0.106c0.064,0.05,0.117,0.116,0.156,0.2c0.038,0.083,0.059,0.186,0.059,0.311c0,0.122,-0.021,0.225,-0.059,0.309c-0.039,0.084,-0.092,0.151,-0.156,0.203c-0.064,0.05,-0.143,0.086,-0.229,0.108c-0.086,0.021,-0.18,0.032,-0.277,0.032c-0.099,0,-0.192,-0.012,-0.28,-0.032c-0.088,-0.021,-0.165,-0.059,-0.23,-0.108c-0.063,-0.051,-0.115,-0.119,-0.153,-0.203C98.723,109.098,98.704,108.995,98.704,108.873zM100.086,114.988L98.762,114.988L98.762,110.129l1.324,0L100.086,114.988z"/>
   <path fill="#8C8C8C"  d="M105.736,114.988L104.412,114.988l0,-2.839c0,-0.351,-0.053,-0.613,-0.158,-0.787c-0.105,-0.176,-0.274,-0.265,-0.508,-0.265c-0.173,0,-0.317,0.035,-0.434,0.104c-0.116,0.07,-0.209,0.173,-0.276,0.31c-0.066,0.136,-0.115,0.304,-0.146,0.504c-0.029,0.2,-0.043,0.429,-0.043,0.687l0,2.286L101.522,114.988L101.522,110.129l1.012,0l0.181,0.621l0.073,0c0.069,-0.124,0.153,-0.23,0.253,-0.321c0.102,-0.089,0.21,-0.163,0.328,-0.221s0.245,-0.103,0.378,-0.128c0.136,-0.028,0.271,-0.043,0.409,-0.043c0.237,0,0.454,0.033,0.647,0.104c0.194,0.067,0.36,0.174,0.5,0.318c0.141,0.146,0.247,0.328,0.321,0.555c0.075,0.225,0.113,0.492,0.113,0.807l0,3.168L105.736,114.988L105.736,114.988z"/>
   <path fill="#8C8C8C"  d="M111.166,110.138l0,0.722l-0.708,0.221c0.059,0.1,0.1,0.201,0.122,0.308c0.021,0.106,0.033,0.22,0.033,0.343c0,0.246,-0.039,0.471,-0.116,0.676c-0.078,0.203,-0.193,0.379,-0.349,0.522c-0.152,0.146,-0.346,0.258,-0.578,0.337c-0.23,0.08,-0.5,0.119,-0.808,0.119c-0.067,0,-0.141,-0.003,-0.218,-0.012c-0.078,-0.007,-0.137,-0.015,-0.175,-0.021c-0.057,0.049,-0.104,0.101,-0.137,0.152c-0.033,0.054,-0.049,0.117,-0.049,0.193c0,0.061,0.018,0.108,0.056,0.146s0.087,0.065,0.147,0.087c0.06,0.022,0.133,0.036,0.214,0.044s0.165,0.012,0.251,0.012l0.756,0c0.236,0,0.446,0.025,0.631,0.081c0.186,0.055,0.342,0.135,0.472,0.246c0.129,0.109,0.229,0.249,0.299,0.419c0.069,0.169,0.104,0.372,0.104,0.605c0,0.275,-0.054,0.523,-0.164,0.745c-0.109,0.224,-0.274,0.41,-0.494,0.565c-0.219,0.154,-0.488,0.273,-0.813,0.355c-0.324,0.082,-0.699,0.123,-1.126,0.123c-0.329,0,-0.618,-0.031,-0.864,-0.094c-0.247,-0.063,-0.451,-0.15,-0.617,-0.27c-0.165,-0.116,-0.288,-0.258,-0.371,-0.424c-0.084,-0.164,-0.125,-0.353,-0.125,-0.561c0,-0.177,0.031,-0.33,0.093,-0.46c0.061,-0.131,0.143,-0.243,0.243,-0.336c0.102,-0.093,0.218,-0.168,0.347,-0.227c0.129,-0.058,0.262,-0.103,0.396,-0.134c-0.061,-0.026,-0.12,-0.063,-0.181,-0.109c-0.059,-0.047,-0.113,-0.1,-0.161,-0.159c-0.047,-0.063,-0.086,-0.129,-0.116,-0.203c-0.031,-0.072,-0.047,-0.15,-0.047,-0.23c0,-0.093,0.015,-0.178,0.04,-0.252c0.029,-0.076,0.068,-0.146,0.12,-0.212c0.052,-0.064,0.117,-0.126,0.196,-0.184c0.078,-0.06,0.166,-0.117,0.264,-0.18c-0.254,-0.11,-0.456,-0.287,-0.604,-0.53c-0.15,-0.244,-0.225,-0.529,-0.225,-0.859c0,-0.26,0.04,-0.494,0.121,-0.699c0.081,-0.207,0.2,-0.381,0.356,-0.523c0.155,-0.144,0.35,-0.252,0.582,-0.328c0.231,-0.076,0.499,-0.113,0.801,-0.113c0.057,0,0.122,0.004,0.194,0.012s0.145,0.018,0.216,0.025c0.07,0.01,0.137,0.021,0.196,0.033c0.061,0.01,0.109,0.021,0.146,0.029L111.166,110.138L111.166,110.138zM107.689,115.675c0,0.073,0.017,0.145,0.047,0.211c0.03,0.068,0.08,0.129,0.15,0.182c0.068,0.052,0.16,0.094,0.272,0.124c0.113,0.03,0.252,0.046,0.417,0.046c0.452,0,0.792,-0.063,1.021,-0.191c0.229,-0.127,0.343,-0.298,0.343,-0.514c0,-0.183,-0.07,-0.304,-0.213,-0.364c-0.143,-0.06,-0.361,-0.091,-0.66,-0.091l-0.613,0c-0.077,0,-0.162,0.009,-0.252,0.027c-0.09,0.018,-0.172,0.052,-0.248,0.099c-0.075,0.046,-0.139,0.108,-0.188,0.184S107.689,115.56,107.689,115.675zM108.168,111.72c0,0.263,0.049,0.468,0.147,0.612c0.098,0.146,0.248,0.217,0.447,0.217c0.209,0,0.358,-0.07,0.451,-0.217c0.094,-0.145,0.14,-0.35,0.14,-0.612c0,-0.261,-0.046,-0.468,-0.137,-0.622c-0.092,-0.152,-0.243,-0.229,-0.454,-0.229C108.365,110.868,108.168,111.151,108.168,111.72z"/>
   <path fill="#8C8C8C"  d="M111.916,114.367c0,-0.136,0.02,-0.251,0.059,-0.346c0.04,-0.095,0.094,-0.172,0.163,-0.229c0.069,-0.058,0.149,-0.101,0.244,-0.126c0.092,-0.026,0.191,-0.039,0.299,-0.039c0.102,0,0.198,0.013,0.289,0.039c0.092,0.025,0.172,0.068,0.242,0.126c0.068,0.057,0.123,0.134,0.163,0.229c0.041,0.095,0.062,0.21,0.062,0.346c0,0.13,-0.021,0.242,-0.062,0.335c-0.04,0.093,-0.095,0.17,-0.163,0.229c-0.07,0.062,-0.15,0.104,-0.242,0.133c-0.091,0.027,-0.188,0.042,-0.289,0.042c-0.106,0,-0.207,-0.015,-0.299,-0.042c-0.095,-0.027,-0.175,-0.071,-0.244,-0.133c-0.069,-0.061,-0.123,-0.138,-0.163,-0.229C111.934,114.609,111.916,114.497,111.916,114.367z"/>
   <path fill="#8C8C8C"  d="M118.875,112.549c0,0.406,-0.052,0.767,-0.153,1.079c-0.104,0.313,-0.251,0.576,-0.443,0.79c-0.192,0.215,-0.428,0.378,-0.704,0.489c-0.277,0.111,-0.587,0.167,-0.933,0.167c-0.321,0,-0.617,-0.056,-0.886,-0.167c-0.271,-0.112,-0.503,-0.274,-0.698,-0.489c-0.195,-0.214,-0.35,-0.479,-0.458,-0.79c-0.11,-0.313,-0.165,-0.673,-0.165,-1.079c0,-0.402,0.051,-0.76,0.154,-1.072c0.103,-0.314,0.25,-0.576,0.442,-0.789C115.223,110.474,115.457,110.313,115.732,110.204s0.587,-0.164,0.937,-0.164c0.319,0,0.615,0.055,0.886,0.164c0.27,0.111,0.502,0.271,0.695,0.484c0.197,0.213,0.351,0.477,0.459,0.789C118.819,111.789,118.875,112.147,118.875,112.549zM115.789,112.549c0,0.484,0.068,0.851,0.205,1.093c0.137,0.246,0.357,0.368,0.664,0.368c0.306,0,0.524,-0.123,0.66,-0.37c0.137,-0.245,0.205,-0.608,0.205,-1.091s-0.068,-0.846,-0.205,-1.084c-0.136,-0.238,-0.358,-0.357,-0.668,-0.357c-0.305,0,-0.523,0.119,-0.659,0.357C115.856,111.704,115.789,112.067,115.789,112.549z"/>
   <path fill="#8C8C8C"  d="M122.595,110.038c0.035,0,0.073,0.002,0.115,0.002c0.042,0.002,0.083,0.006,0.12,0.01c0.04,0.005,0.076,0.009,0.109,0.014c0.033,0.004,0.059,0.01,0.076,0.016l0,1.244c-0.023,-0.008,-0.055,-0.012,-0.095,-0.018c-0.041,-0.007,-0.083,-0.012,-0.13,-0.018c-0.045,-0.004,-0.089,-0.006,-0.132,-0.008c-0.045,-0.002,-0.08,-0.002,-0.108,-0.002c-0.171,0,-0.328,0.021,-0.473,0.064c-0.144,0.043,-0.267,0.113,-0.37,0.211c-0.102,0.098,-0.182,0.225,-0.237,0.383c-0.058,0.157,-0.084,0.352,-0.084,0.581l0,2.474l-1.326,0L120.06,110.129l1.004,0l0.195,0.73l0.065,0c0.068,-0.125,0.146,-0.238,0.226,-0.34c0.081,-0.103,0.172,-0.189,0.271,-0.259c0.101,-0.071,0.213,-0.126,0.339,-0.165C122.289,110.058,122.433,110.038,122.595,110.038z"/>
   <path fill="#8C8C8C"  d="M127.903,110.138l0,0.722l-0.708,0.221c0.058,0.1,0.099,0.201,0.121,0.308s0.034,0.22,0.034,0.343c0,0.246,-0.039,0.471,-0.116,0.676c-0.079,0.203,-0.194,0.379,-0.349,0.522c-0.153,0.146,-0.348,0.258,-0.578,0.337c-0.232,0.08,-0.501,0.119,-0.809,0.119c-0.067,0,-0.141,-0.003,-0.219,-0.012c-0.078,-0.007,-0.135,-0.015,-0.173,-0.021c-0.058,0.049,-0.104,0.101,-0.137,0.152c-0.034,0.054,-0.05,0.117,-0.05,0.193c0,0.061,0.019,0.108,0.057,0.146c0.037,0.037,0.086,0.065,0.146,0.087c0.062,0.021,0.133,0.036,0.215,0.044c0.08,0.008,0.164,0.012,0.251,0.012l0.756,0c0.234,0,0.445,0.025,0.63,0.081c0.186,0.055,0.343,0.135,0.472,0.246c0.129,0.109,0.229,0.249,0.298,0.419c0.07,0.169,0.104,0.372,0.104,0.605c0,0.275,-0.054,0.523,-0.165,0.745c-0.109,0.224,-0.275,0.41,-0.493,0.565c-0.219,0.154,-0.489,0.273,-0.815,0.355c-0.323,0.082,-0.698,0.123,-1.125,0.123c-0.329,0,-0.617,-0.031,-0.864,-0.094c-0.246,-0.063,-0.451,-0.15,-0.617,-0.27c-0.164,-0.116,-0.287,-0.258,-0.371,-0.424c-0.083,-0.164,-0.124,-0.353,-0.124,-0.561c0,-0.177,0.03,-0.33,0.091,-0.46c0.063,-0.131,0.144,-0.243,0.244,-0.336c0.103,-0.093,0.217,-0.168,0.346,-0.227c0.129,-0.058,0.263,-0.103,0.398,-0.134c-0.062,-0.026,-0.121,-0.063,-0.182,-0.109c-0.06,-0.047,-0.113,-0.1,-0.16,-0.159c-0.047,-0.063,-0.087,-0.129,-0.117,-0.203c-0.03,-0.073,-0.045,-0.151,-0.045,-0.231c0,-0.093,0.014,-0.178,0.04,-0.252c0.027,-0.076,0.067,-0.146,0.12,-0.212c0.051,-0.064,0.117,-0.126,0.194,-0.184c0.078,-0.06,0.166,-0.117,0.266,-0.18c-0.255,-0.109,-0.456,-0.287,-0.606,-0.529c-0.148,-0.244,-0.223,-0.531,-0.223,-0.861c0,-0.26,0.039,-0.493,0.121,-0.698c0.081,-0.207,0.199,-0.382,0.354,-0.524c0.156,-0.143,0.351,-0.252,0.583,-0.328c0.231,-0.074,0.499,-0.111,0.8,-0.111c0.059,0,0.123,0.003,0.195,0.011s0.146,0.017,0.215,0.026c0.072,0.009,0.138,0.021,0.198,0.031c0.062,0.012,0.108,0.021,0.145,0.03L127.903,110.137L127.903,110.138zM124.427,115.675c0,0.073,0.017,0.145,0.046,0.211c0.031,0.068,0.081,0.129,0.149,0.182c0.07,0.052,0.161,0.094,0.273,0.124c0.114,0.03,0.252,0.046,0.418,0.046c0.451,0,0.792,-0.063,1.021,-0.191c0.229,-0.127,0.343,-0.298,0.343,-0.514c0,-0.183,-0.071,-0.304,-0.214,-0.364s-0.361,-0.091,-0.66,-0.091l-0.612,0c-0.079,0,-0.163,0.009,-0.252,0.027c-0.09,0.019,-0.173,0.052,-0.248,0.099c-0.076,0.046,-0.139,0.108,-0.188,0.184C124.453,115.462,124.427,115.56,124.427,115.675zM124.904,111.72c0,0.263,0.049,0.468,0.148,0.612c0.099,0.146,0.248,0.217,0.447,0.217c0.209,0,0.358,-0.07,0.451,-0.217c0.094,-0.145,0.141,-0.35,0.141,-0.612c0,-0.261,-0.046,-0.468,-0.138,-0.622c-0.092,-0.152,-0.243,-0.229,-0.454,-0.229C125.102,110.868,124.904,111.151,124.904,111.72z"/>
  </g>
  <g >
   <path fill="#8C8C8C"  d="M73.497,107.258l-8.146,0c-0.532,0,-0.965,0.432,-0.965,0.964l0,8.146c0,0.531,0.433,0.964,0.965,0.964l5.55,0l3.557,-3.558L74.458,108.222C74.461,107.689,74.029,107.258,73.497,107.258zM71.82,110.987l-1.075,0l0,0.401l1.075,0l0,1.601l-2.196,0l0,2.058l-2.572,0l0,-4.67l0.988,-0.99l3.779,0l0,1.603l0.001,0L71.82,110.987z"/>
  </g>
 </g>
 <g partID="9994550">
  <g  id="breadboardbreadboard">
   <g  id="background">
    <rect width="129.839" x="0" fill="#D9D9D9"  height="100.914"/>
   </g>
   <rect width="90.5" x="19.67" y="46.83" fill="#CCC9C9"  height="7.252"/>
   <g  id="sockets" transform="matrix(1, 0, 0, 1, -4.5, -9)">
    <g  id="A1pin">
     <path fill="#BFBFBF"  d="M9.427,19.858c0,-1.322,1.071,-2.396,2.395,-2.396s2.394,1.072,2.394,2.396"/>
     <path fill="#E6E6E6"  d="M14.214,19.858c0,1.319,-1.07,2.393,-2.394,2.393s-2.395,-1.072,-2.395,-2.393"/>
     <circle fill="#383838" cx="11.822"  cy="19.857" r="1.196"/>
    </g>
    <g  id="B1pin">
     <path fill="#BFBFBF"  d="M9.427,27.058c0,-1.322,1.071,-2.396,2.395,-2.396s2.394,1.071,2.394,2.396"/>
     <path fill="#E6E6E6"  d="M14.214,27.058c0,1.321,-1.07,2.393,-2.394,2.393s-2.395,-1.07,-2.395,-2.393l0,0"/>
     <circle fill="#383838" cx="11.822"  cy="27.057" r="1.197"/>
    </g>
    <g  id="C1pin">
     <path fill="#BFBFBF"  d="M9.427,34.256c0,-1.319,1.071,-2.394,2.395,-2.394s2.394,1.072,2.394,2.394"/>
     <path fill="#E6E6E6"  d="M14.214,34.256c0,1.322,-1.07,2.396,-2.394,2.396s-2.395,-1.072,-2.395,-2.396"/>
     <circle fill="#383838" cx="11.822"  cy="34.257" r="1.196"/>
    </g>
    <g  id="D1pin">
     <path fill="#BFBFBF"  d="M9.427,41.457c0,-1.322,1.071,-2.396,2.395,-2.396s2.394,1.072,2.394,2.396"/>
     <path fill="#E6E6E6"  d="M14.214,41.457c0,1.321,-1.07,2.394,-2.394,2.394s-2.395,-1.07,-2.395,-2.394l0,0"/>
     <circle fill="#383838" cx="11.822"  cy="41.457" r="1.197"/>
    </g>
    <g  id="E1pin">
     <path fill="#BFBFBF"  d="M9.427,48.657c0,-1.322,1.071,-2.394,2.395,-2.394s2.394,1.07,2.394,2.394"/>
     <path fill="#E6E6E6"  d="M14.214,48.657c0,1.322,-1.07,2.395,-2.394,2.395s-2.395,-1.072,-2.395,-2.395l0,0"/>
     <circle fill="#383838" cx="11.822"  cy="48.657" r="1.197"/>
    </g>
    <g  id="A2pin">
     <path fill="#BFBFBF"  d="M16.627,19.858c0,-1.322,1.071,-2.396,2.395,-2.396c1.32,0,2.394,1.072,2.394,2.396"/>
     <path fill="#E6E6E6"  d="M21.414,19.858c0,1.319,-1.07,2.393,-2.393,2.395c-1.322,0,-2.396,-1.07,-2.396,-2.393c0,-0.002,0,-0.002,0,-0.002"/>
     <circle fill="#383838" cx="19.022"  cy="19.857" r="1.196"/>
    </g>
    <g  id="B2pin">
     <path fill="#BFBFBF"  d="M16.627,27.058c0,-1.322,1.071,-2.396,2.395,-2.396c1.32,0,2.394,1.071,2.394,2.396"/>
     <path fill="#E6E6E6"  d="M21.414,27.058c0,1.321,-1.07,2.395,-2.393,2.395c-1.322,0.002,-2.396,-1.07,-2.396,-2.393l0,-0.002"/>
     <circle fill="#383838" cx="19.022"  cy="27.057" r="1.197"/>
    </g>
    <g  id="C2pin">
     <path fill="#BFBFBF"  d="M16.627,34.256c0,-1.319,1.071,-2.394,2.395,-2.394c1.32,0,2.394,1.072,2.394,2.394"/>
     <path fill="#E6E6E6"  d="M21.414,34.256c0,1.322,-1.07,2.396,-2.393,2.396s-2.396,-1.069,-2.396,-2.393c0,-0.002,0,-0.002,0,-0.004"/>
     <circle fill="#383838" cx="19.022"  cy="34.257" r="1.196"/>
    </g>
    <g  id="D2pin">
     <path fill="#BFBFBF"  d="M16.627,41.457c0,-1.322,1.071,-2.396,2.395,-2.396c1.32,0,2.394,1.072,2.394,2.396"/>
     <path fill="#E6E6E6"  d="M21.414,41.457c0,1.321,-1.07,2.396,-2.393,2.396c-1.323,0,-2.396,-1.07,-2.396,-2.394l0,-0.002"/>
     <circle fill="#383838" cx="19.022"  cy="41.457" r="1.197"/>
    </g>
    <g  id="E2pin">
     <path fill="#BFBFBF"  d="M16.627,48.657c0,-1.322,1.071,-2.394,2.395,-2.394c1.32,0,2.394,1.07,2.394,2.394"/>
     <path fill="#E6E6E6"  d="M21.414,48.657c0,1.322,-1.07,2.395,-2.393,2.395c-1.322,0.002,-2.396,-1.07,-2.396,-2.391c0,-0.002,0,-0.002,0,-0.004"/>
     <circle fill="#383838" cx="19.022"  cy="48.657" r="1.197"/>
    </g>
    <g  id="A3pin">
     <path fill="#BFBFBF"  d="M23.826,19.858c0,-1.322,1.072,-2.396,2.395,-2.396c1.321,0,2.395,1.072,2.395,2.396"/>
     <path fill="#E6E6E6"  d="M28.615,19.858c0,1.319,-1.072,2.393,-2.395,2.393c-1.321,0,-2.395,-1.072,-2.395,-2.393l0,0"/>
     <circle fill="#383838" cx="26.221"  cy="19.857" r="1.196"/>
    </g>
    <g  id="B3pin">
     <path fill="#BFBFBF"  d="M23.826,27.058c0,-1.322,1.072,-2.396,2.395,-2.396c1.321,0,2.395,1.071,2.395,2.396"/>
     <path fill="#E6E6E6"  d="M28.615,27.058c0,1.321,-1.072,2.393,-2.395,2.393c-1.321,0,-2.395,-1.07,-2.395,-2.393"/>
     <circle fill="#383838" cx="26.221"  cy="27.057" r="1.197"/>
    </g>
    <g  id="C3pin">
     <path fill="#BFBFBF"  d="M23.826,34.256c0,-1.319,1.072,-2.394,2.395,-2.394c1.321,0,2.395,1.072,2.395,2.394"/>
     <path fill="#E6E6E6"  d="M28.615,34.256c0,1.322,-1.072,2.396,-2.395,2.396c-1.321,0,-2.395,-1.072,-2.395,-2.396l0,0"/>
     <circle fill="#383838" cx="26.221"  cy="34.257" r="1.196"/>
    </g>
    <g  id="D3pin">
     <path fill="#BFBFBF"  d="M23.826,41.457c0,-1.322,1.072,-2.396,2.395,-2.396c1.321,0,2.395,1.072,2.395,2.396"/>
     <path fill="#E6E6E6"  d="M28.615,41.457c0,1.321,-1.072,2.394,-2.395,2.394c-1.321,0,-2.395,-1.07,-2.395,-2.394"/>
     <circle fill="#383838" cx="26.221"  cy="41.457" r="1.197"/>
    </g>
    <g  id="E3pin">
     <path fill="#BFBFBF"  d="M23.826,48.657c0,-1.322,1.072,-2.394,2.395,-2.394c1.321,0,2.395,1.07,2.395,2.394"/>
     <path fill="#E6E6E6"  d="M28.615,48.657c0,1.322,-1.072,2.395,-2.395,2.395c-1.321,0,-2.395,-1.072,-2.395,-2.395"/>
     <circle fill="#383838" cx="26.221"  cy="48.657" r="1.197"/>
    </g>
    <g  id="A4pin">
     <path fill="#BFBFBF"  d="M31.028,19.858c0,-1.322,1.072,-2.396,2.394,-2.396c1.322,0,2.395,1.072,2.395,2.396"/>
     <path fill="#E6E6E6"  d="M35.815,19.858c0,1.319,-1.071,2.393,-2.395,2.393c-1.32,0,-2.394,-1.072,-2.394,-2.393l0,0"/>
     <circle fill="#383838" cx="33.42"  cy="19.857" r="1.196"/>
    </g>
    <g  id="B4pin">
     <path fill="#BFBFBF"  d="M31.028,27.058c0,-1.322,1.072,-2.396,2.394,-2.396c1.322,0,2.395,1.071,2.395,2.396"/>
     <path fill="#E6E6E6"  d="M35.815,27.058c0,1.321,-1.071,2.393,-2.395,2.393c-1.32,0,-2.394,-1.07,-2.394,-2.393"/>
     <circle fill="#383838" cx="33.42"  cy="27.057" r="1.197"/>
    </g>
    <g  id="C4pin">
     <path fill="#BFBFBF"  d="M31.028,34.256c0,-1.319,1.072,-2.394,2.394,-2.394c1.322,0,2.395,1.072,2.395,2.394"/>
     <path fill="#E6E6E6"  d="M35.815,34.256c0,1.322,-1.071,2.396,-2.395,2.396c-1.32,0,-2.394,-1.072,-2.394,-2.396l0,0"/>
     <circle fill="#383838" cx="33.42"  cy="34.257" r="1.196"/>
    </g>
    <g  id="D4pin">
     <path fill="#BFBFBF"  d="M31.028,41.457c0,-1.322,1.072,-2.396,2.394,-2.396c1.322,0,2.395,1.072,2.395,2.396"/>
     <path fill="#E6E6E6"  d="M35.815,41.457c0,1.321,-1.071,2.394,-2.395,2.394c-1.32,0,-2.394,-1.07,-2.394,-2.394"/>
     <circle fill="#383838" cx="33.42"  cy="41.457" r="1.197"/>
    </g>
    <g  id="E4pin">
     <path fill="#BFBFBF"  d="M31.028,48.657c0,-1.322,1.072,-2.394,2.394,-2.394c1.322,0,2.395,1.07,2.395,2.394"/>
     <path fill="#E6E6E6"  d="M35.815,48.657c0,1.322,-1.071,2.395,-2.395,2.395c-1.32,0,-2.394,-1.072,-2.394,-2.395"/>
     <circle fill="#383838" cx="33.42"  cy="48.657" r="1.197"/>
    </g>
    <g  id="A5pin">
     <path fill="#BFBFBF"  d="M38.228,19.858c0,-1.322,1.07,-2.396,2.394,-2.396s2.395,1.072,2.395,2.396"/>
     <path fill="#E6E6E6"  d="M43.015,19.858c0,1.319,-1.071,2.393,-2.395,2.393s-2.394,-1.072,-2.394,-2.393l0,0"/>
     <circle fill="#383838" cx="40.62"  cy="19.857" r="1.196"/>
    </g>
    <g  id="B5pin">
     <path fill="#BFBFBF"  d="M38.228,27.058c0,-1.322,1.07,-2.396,2.394,-2.396s2.395,1.071,2.395,2.396"/>
     <path fill="#E6E6E6"  d="M43.015,27.058c0,1.321,-1.071,2.393,-2.395,2.393s-2.394,-1.07,-2.394,-2.393"/>
     <circle fill="#383838" cx="40.62"  cy="27.057" r="1.197"/>
    </g>
    <g  id="C5pin">
     <path fill="#BFBFBF"  d="M38.228,34.256c0,-1.319,1.07,-2.394,2.394,-2.394s2.395,1.072,2.395,2.394"/>
     <path fill="#E6E6E6"  d="M43.015,34.256c0,1.322,-1.071,2.396,-2.395,2.396s-2.394,-1.072,-2.394,-2.396l0,0"/>
     <circle fill="#383838" cx="40.62"  cy="34.257" r="1.196"/>
    </g>
    <g  id="D5pin">
     <path fill="#BFBFBF"  d="M38.228,41.457c0,-1.322,1.07,-2.396,2.394,-2.396s2.395,1.072,2.395,2.396"/>
     <path fill="#E6E6E6"  d="M43.015,41.457c0,1.321,-1.071,2.394,-2.395,2.394s-2.394,-1.07,-2.394,-2.394"/>
     <circle fill="#383838" cx="40.62"  cy="41.457" r="1.197"/>
    </g>
    <g  id="E5pin">
     <path fill="#BFBFBF"  d="M38.228,48.657c0,-1.322,1.07,-2.394,2.394,-2.394s2.395,1.07,2.395,2.394"/>
     <path fill="#E6E6E6"  d="M43.015,48.657c0,1.322,-1.071,2.395,-2.395,2.395s-2.394,-1.072,-2.394,-2.395"/>
     <circle fill="#383838" cx="40.62"  cy="48.657" r="1.197"/>
    </g>
    <g  id="A6pin">
     <path fill="#BFBFBF"  d="M45.427,19.858c0,-1.322,1.071,-2.396,2.395,-2.396s2.394,1.072,2.394,2.396"/>
     <path fill="#E6E6E6"  d="M50.214,19.858c0,1.319,-1.07,2.393,-2.394,2.393s-2.395,-1.072,-2.395,-2.393l0,0"/>
     <circle fill="#383838" cx="47.822"  cy="19.857" r="1.196"/>
    </g>
    <g  id="B6pin">
     <path fill="#BFBFBF"  d="M45.427,27.058c0,-1.322,1.071,-2.396,2.395,-2.396s2.394,1.071,2.394,2.396"/>
     <path fill="#E6E6E6"  d="M50.214,27.058c0,1.321,-1.07,2.393,-2.394,2.393s-2.395,-1.07,-2.395,-2.393"/>
     <circle fill="#383838" cx="47.822"  cy="27.057" r="1.197"/>
    </g>
    <g  id="C6pin">
     <path fill="#BFBFBF"  d="M45.427,34.256c0,-1.319,1.071,-2.394,2.395,-2.394s2.394,1.072,2.394,2.394"/>
     <path fill="#E6E6E6"  d="M50.214,34.256c0,1.322,-1.07,2.396,-2.394,2.396s-2.395,-1.072,-2.395,-2.396l0,0"/>
     <circle fill="#383838" cx="47.822"  cy="34.257" r="1.196"/>
    </g>
    <g  id="D6pin">
     <path fill="#BFBFBF"  d="M45.427,41.457c0,-1.322,1.071,-2.396,2.395,-2.396s2.394,1.072,2.394,2.396"/>
     <path fill="#E6E6E6"  d="M50.214,41.457c0,1.321,-1.07,2.394,-2.394,2.394s-2.395,-1.07,-2.395,-2.394"/>
     <circle fill="#383838" cx="47.822"  cy="41.457" r="1.197"/>
    </g>
    <g  id="E6pin">
     <path fill="#BFBFBF"  d="M45.427,48.657c0,-1.322,1.071,-2.394,2.395,-2.394s2.394,1.07,2.394,2.394"/>
     <path fill="#E6E6E6"  d="M50.214,48.657c0,1.322,-1.07,2.395,-2.394,2.395s-2.395,-1.072,-2.395,-2.395"/>
     <circle fill="#383838" cx="47.822"  cy="48.657" r="1.197"/>
    </g>
    <g  id="A7pin">
     <path fill="#BFBFBF"  d="M52.627,19.858c0,-1.322,1.071,-2.396,2.395,-2.396c1.32,0,2.394,1.072,2.394,2.396"/>
     <path fill="#E6E6E6"  d="M57.414,19.858c0,1.319,-1.072,2.393,-2.394,2.393c-1.322,0,-2.395,-1.072,-2.395,-2.393l0,0"/>
     <circle fill="#383838" cx="55.022"  cy="19.857" r="1.196"/>
    </g>
    <g  id="B7pin">
     <path fill="#BFBFBF"  d="M52.627,27.058c0,-1.322,1.071,-2.396,2.395,-2.396c1.32,0,2.394,1.071,2.394,2.396"/>
     <path fill="#E6E6E6"  d="M57.414,27.058c0,1.321,-1.072,2.393,-2.394,2.393c-1.322,0,-2.395,-1.07,-2.395,-2.393"/>
     <circle fill="#383838" cx="55.022"  cy="27.057" r="1.197"/>
    </g>
    <g  id="C7pin">
     <path fill="#BFBFBF"  d="M52.627,34.256c0,-1.319,1.071,-2.394,2.395,-2.394c1.32,0,2.394,1.072,2.394,2.394"/>
     <path fill="#E6E6E6"  d="M57.414,34.256c0,1.322,-1.072,2.396,-2.394,2.396c-1.322,0,-2.395,-1.072,-2.395,-2.396l0,0"/>
     <circle fill="#383838" cx="55.022"  cy="34.257" r="1.196"/>
    </g>
    <g  id="D7pin">
     <path fill="#BFBFBF"  d="M52.627,41.457c0,-1.322,1.071,-2.396,2.395,-2.396c1.32,0,2.394,1.072,2.394,2.396"/>
     <path fill="#E6E6E6"  d="M57.414,41.457c0,1.321,-1.072,2.394,-2.394,2.394c-1.322,0,-2.395,-1.07,-2.395,-2.394"/>
     <circle fill="#383838" cx="55.022"  cy="41.457" r="1.197"/>
    </g>
    <g  id="E7pin">
     <path fill="#BFBFBF"  d="M52.627,48.657c0,-1.322,1.071,-2.394,2.395,-2.394c1.32,0,2.394,1.07,2.394,2.394"/>
     <path fill="#E6E6E6"  d="M57.414,48.657c0,1.322,-1.072,2.395,-2.394,2.395c-1.322,0,-2.395,-1.072,-2.395,-2.395"/>
     <circle fill="#383838" cx="55.022"  cy="48.657" r="1.197"/>
    </g>
    <g  id="A8pin">
     <path fill="#BFBFBF"  d="M59.826,19.858c0,-1.322,1.072,-2.396,2.395,-2.396c1.321,0,2.393,1.072,2.393,2.396"/>
     <path fill="#E6E6E6"  d="M64.614,19.858c0,1.319,-1.07,2.393,-2.393,2.393s-2.395,-1.072,-2.395,-2.393l0,0"/>
     <circle fill="#383838" cx="62.221"  cy="19.857" r="1.196"/>
    </g>
    <g  id="B8pin">
     <path fill="#BFBFBF"  d="M59.826,27.058c0,-1.322,1.072,-2.396,2.395,-2.396c1.321,0,2.393,1.071,2.393,2.396"/>
     <path fill="#E6E6E6"  d="M64.614,27.058c0,1.321,-1.07,2.393,-2.393,2.393s-2.395,-1.07,-2.395,-2.393"/>
     <circle fill="#383838" cx="62.221"  cy="27.057" r="1.197"/>
    </g>
    <g  id="C8pin">
     <path fill="#BFBFBF"  d="M59.826,34.256c0,-1.319,1.072,-2.394,2.395,-2.394c1.321,0,2.393,1.072,2.393,2.394"/>
     <path fill="#E6E6E6"  d="M64.614,34.256c0,1.322,-1.07,2.396,-2.393,2.396s-2.395,-1.072,-2.395,-2.396l0,0"/>
     <circle fill="#383838" cx="62.221"  cy="34.257" r="1.196"/>
    </g>
    <g  id="D8pin">
     <path fill="#BFBFBF"  d="M59.826,41.457c0,-1.322,1.072,-2.396,2.395,-2.396c1.321,0,2.393,1.072,2.393,2.396"/>
     <path fill="#E6E6E6"  d="M64.614,41.457c0,1.321,-1.07,2.394,-2.393,2.394s-2.395,-1.07,-2.395,-2.394"/>
     <circle fill="#383838" cx="62.221"  cy="41.457" r="1.197"/>
    </g>
    <g  id="E8pin">
     <path fill="#BFBFBF"  d="M59.826,48.657c0,-1.322,1.072,-2.394,2.395,-2.394c1.321,0,2.393,1.07,2.393,2.394"/>
     <path fill="#E6E6E6"  d="M64.614,48.657c0,1.322,-1.07,2.395,-2.393,2.395s-2.395,-1.072,-2.395,-2.395"/>
     <circle fill="#383838" cx="62.221"  cy="48.657" r="1.197"/>
    </g>
    <g  id="A9pin">
     <path fill="#BFBFBF"  d="M67.028,19.858c0,-1.322,1.072,-2.396,2.393,-2.396c1.322,0,2.396,1.072,2.396,2.396"/>
     <path fill="#E6E6E6"  d="M71.815,19.858c0,1.319,-1.072,2.393,-2.396,2.393c-1.319,0,-2.393,-1.072,-2.393,-2.393l0,0"/>
     <circle fill="#383838" cx="69.42"  cy="19.857" r="1.196"/>
    </g>
    <g  id="B9pin">
     <path fill="#BFBFBF"  d="M67.028,27.058c0,-1.322,1.072,-2.396,2.393,-2.396c1.322,0,2.396,1.071,2.396,2.396"/>
     <path fill="#E6E6E6"  d="M71.815,27.058c0,1.321,-1.072,2.393,-2.396,2.393c-1.319,0,-2.393,-1.07,-2.393,-2.393"/>
     <circle fill="#383838" cx="69.42"  cy="27.057" r="1.197"/>
    </g>
    <g  id="C9pin">
     <path fill="#BFBFBF"  d="M67.028,34.256c0,-1.319,1.072,-2.394,2.393,-2.394c1.322,0,2.396,1.072,2.396,2.394"/>
     <path fill="#E6E6E6"  d="M71.815,34.256c0,1.322,-1.072,2.396,-2.396,2.396c-1.319,0,-2.393,-1.072,-2.393,-2.396l0,0"/>
     <circle fill="#383838" cx="69.42"  cy="34.257" r="1.196"/>
    </g>
    <g  id="D9pin">
     <path fill="#BFBFBF"  d="M67.028,41.457c0,-1.322,1.072,-2.396,2.393,-2.396c1.322,0,2.396,1.072,2.396,2.396"/>
     <path fill="#E6E6E6"  d="M71.815,41.457c0,1.321,-1.072,2.394,-2.396,2.394c-1.319,0,-2.393,-1.07,-2.393,-2.394"/>
     <circle fill="#383838" cx="69.42"  cy="41.457" r="1.197"/>
    </g>
    <g  id="E9pin">
     <path fill="#BFBFBF"  d="M67.028,48.657c0,-1.322,1.072,-2.394,2.393,-2.394c1.322,0,2.396,1.07,2.396,2.394"/>
     <path fill="#E6E6E6"  d="M71.815,48.657c0,1.322,-1.072,2.395,-2.396,2.395c-1.319,0,-2.393,-1.072,-2.393,-2.395"/>
     <circle fill="#383838" cx="69.42"  cy="48.657" r="1.197"/>
    </g>
    <g  id="A10pin">
     <path fill="#BFBFBF"  d="M74.227,19.858c0,-1.322,1.071,-2.396,2.395,-2.396s2.394,1.072,2.394,2.396"/>
     <path fill="#E6E6E6"  d="M79.014,19.858c0,1.319,-1.07,2.393,-2.394,2.393s-2.395,-1.072,-2.395,-2.393l0,0"/>
     <circle fill="#383838" cx="76.621"  cy="19.857" r="1.196"/>
    </g>
    <g  id="B10pin">
     <path fill="#BFBFBF"  d="M74.227,27.058c0,-1.322,1.071,-2.396,2.395,-2.396s2.394,1.071,2.394,2.396"/>
     <path fill="#E6E6E6"  d="M79.014,27.058c0,1.321,-1.07,2.393,-2.394,2.393s-2.395,-1.07,-2.395,-2.393"/>
     <circle fill="#383838" cx="76.621"  cy="27.057" r="1.197"/>
    </g>
    <g  id="C10pin">
     <path fill="#BFBFBF"  d="M74.227,34.256c0,-1.319,1.071,-2.394,2.395,-2.394s2.394,1.072,2.394,2.394"/>
     <path fill="#E6E6E6"  d="M79.014,34.256c0,1.322,-1.07,2.396,-2.394,2.396s-2.395,-1.072,-2.395,-2.396l0,0"/>
     <circle fill="#383838" cx="76.621"  cy="34.257" r="1.196"/>
    </g>
    <g  id="D10pin">
     <path fill="#BFBFBF"  d="M74.227,41.457c0,-1.322,1.071,-2.396,2.395,-2.396s2.394,1.072,2.394,2.396"/>
     <path fill="#E6E6E6"  d="M79.014,41.457c0,1.321,-1.07,2.394,-2.394,2.394s-2.395,-1.07,-2.395,-2.394"/>
     <circle fill="#383838" cx="76.621"  cy="41.457" r="1.197"/>
    </g>
    <g  id="E10pin">
     <path fill="#BFBFBF"  d="M74.227,48.657c0,-1.322,1.071,-2.394,2.395,-2.394s2.394,1.07,2.394,2.394"/>
     <path fill="#E6E6E6"  d="M79.014,48.657c0,1.322,-1.07,2.395,-2.394,2.395s-2.395,-1.072,-2.395,-2.395"/>
     <circle fill="#383838" cx="76.621"  cy="48.657" r="1.197"/>
    </g>
    <g  id="A11pin">
     <path fill="#BFBFBF"  d="M81.428,19.858c0,-1.322,1.07,-2.396,2.394,-2.396s2.395,1.072,2.395,2.396"/>
     <path fill="#E6E6E6"  d="M86.215,19.858c0,1.319,-1.071,2.393,-2.395,2.393s-2.394,-1.072,-2.394,-2.393l0,0"/>
     <circle fill="#383838" cx="83.821"  cy="19.857" r="1.196"/>
    </g>
    <g  id="B11pin">
     <path fill="#BFBFBF"  d="M81.428,27.058c0,-1.322,1.07,-2.396,2.394,-2.396s2.395,1.071,2.395,2.396"/>
     <path fill="#E6E6E6"  d="M86.215,27.058c0,1.321,-1.071,2.393,-2.395,2.393s-2.394,-1.07,-2.394,-2.393"/>
     <circle fill="#383838" cx="83.821"  cy="27.057" r="1.197"/>
    </g>
    <g  id="C11pin">
     <path fill="#BFBFBF"  d="M81.428,34.256c0,-1.319,1.07,-2.394,2.394,-2.394s2.395,1.072,2.395,2.394"/>
     <path fill="#E6E6E6"  d="M86.215,34.256c0,1.322,-1.071,2.396,-2.395,2.396s-2.394,-1.072,-2.394,-2.396l0,0"/>
     <circle fill="#383838" cx="83.821"  cy="34.257" r="1.196"/>
    </g>
    <g  id="D11pin">
     <path fill="#BFBFBF"  d="M81.428,41.457c0,-1.322,1.07,-2.396,2.394,-2.396s2.395,1.072,2.395,2.396"/>
     <path fill="#E6E6E6"  d="M86.215,41.457c0,1.321,-1.071,2.394,-2.395,2.394s-2.394,-1.07,-2.394,-2.394"/>
     <circle fill="#383838" cx="83.821"  cy="41.457" r="1.197"/>
    </g>
    <g  id="E11pin">
     <path fill="#BFBFBF"  d="M81.428,48.657c0,-1.322,1.07,-2.394,2.394,-2.394s2.395,1.07,2.395,2.394"/>
     <path fill="#E6E6E6"  d="M86.215,48.657c0,1.322,-1.071,2.395,-2.395,2.395s-2.394,-1.072,-2.394,-2.395"/>
     <circle fill="#383838" cx="83.821"  cy="48.657" r="1.197"/>
    </g>
    <g  id="A12pin">
     <path fill="#BFBFBF"  d="M88.627,19.858c0,-1.322,1.072,-2.396,2.396,-2.396c1.319,0,2.393,1.072,2.393,2.396"/>
     <path fill="#E6E6E6"  d="M93.414,19.858c0,1.319,-1.072,2.393,-2.393,2.393c-1.322,0,-2.396,-1.072,-2.396,-2.393l0,0"/>
     <circle fill="#383838" cx="91.022"  cy="19.857" r="1.196"/>
    </g>
    <g  id="B12pin">
     <path fill="#BFBFBF"  d="M88.627,27.058c0,-1.322,1.072,-2.396,2.396,-2.396c1.319,0,2.393,1.071,2.393,2.396"/>
     <path fill="#E6E6E6"  d="M93.414,27.058c0,1.321,-1.072,2.393,-2.393,2.393c-1.322,0,-2.396,-1.07,-2.396,-2.393"/>
     <circle fill="#383838" cx="91.022"  cy="27.057" r="1.197"/>
    </g>
    <g  id="C12pin">
     <path fill="#BFBFBF"  d="M88.627,34.256c0,-1.319,1.072,-2.394,2.396,-2.394c1.319,0,2.393,1.072,2.393,2.394"/>
     <path fill="#E6E6E6"  d="M93.414,34.256c0,1.322,-1.072,2.396,-2.393,2.396c-1.322,0,-2.396,-1.072,-2.396,-2.396l0,0"/>
     <circle fill="#383838" cx="91.022"  cy="34.257" r="1.196"/>
    </g>
    <g  id="D12pin">
     <path fill="#BFBFBF"  d="M88.627,41.457c0,-1.322,1.072,-2.396,2.396,-2.396c1.319,0,2.393,1.072,2.393,2.396"/>
     <path fill="#E6E6E6"  d="M93.414,41.457c0,1.321,-1.072,2.394,-2.393,2.394c-1.322,0,-2.396,-1.07,-2.396,-2.394"/>
     <circle fill="#383838" cx="91.022"  cy="41.457" r="1.197"/>
    </g>
    <g  id="E12pin">
     <path fill="#BFBFBF"  d="M88.627,48.657c0,-1.322,1.072,-2.394,2.396,-2.394c1.319,0,2.393,1.07,2.393,2.394"/>
     <path fill="#E6E6E6"  d="M93.414,48.657c0,1.322,-1.072,2.395,-2.393,2.395c-1.322,0,-2.396,-1.072,-2.396,-2.395"/>
     <circle fill="#383838" cx="91.022"  cy="48.657" r="1.197"/>
    </g>
    <g  id="A13pin">
     <path fill="#BFBFBF"  d="M95.826,19.858c0,-1.322,1.072,-2.396,2.396,-2.396c1.322,0,2.393,1.072,2.393,2.396"/>
     <path fill="#E6E6E6"  d="M100.614,19.858c0,1.319,-1.07,2.393,-2.393,2.393c-1.323,0,-2.396,-1.072,-2.396,-2.393l0,0"/>
     <circle fill="#383838" cx="98.221"  cy="19.857" r="1.196"/>
    </g>
    <g  id="B13pin">
     <path fill="#BFBFBF"  d="M95.826,27.058c0,-1.322,1.072,-2.396,2.396,-2.396c1.322,0,2.393,1.071,2.393,2.396"/>
     <path fill="#E6E6E6"  d="M100.614,27.058c0,1.321,-1.07,2.393,-2.393,2.393c-1.323,0,-2.396,-1.07,-2.396,-2.393"/>
     <circle fill="#383838" cx="98.221"  cy="27.057" r="1.197"/>
    </g>
    <g  id="C13pin">
     <path fill="#BFBFBF"  d="M95.826,34.256c0,-1.319,1.072,-2.394,2.396,-2.394c1.322,0,2.393,1.072,2.393,2.394"/>
     <path fill="#E6E6E6"  d="M100.614,34.256c0,1.322,-1.07,2.396,-2.393,2.396c-1.323,0,-2.396,-1.072,-2.396,-2.396l0,0"/>
     <circle fill="#383838" cx="98.221"  cy="34.257" r="1.196"/>
    </g>
    <g  id="D13pin">
     <path fill="#BFBFBF"  d="M95.826,41.457c0,-1.322,1.072,-2.396,2.396,-2.396c1.322,0,2.393,1.072,2.393,2.396"/>
     <path fill="#E6E6E6"  d="M100.614,41.457c0,1.321,-1.07,2.394,-2.393,2.394c-1.323,0,-2.396,-1.07,-2.396,-2.394"/>
     <circle fill="#383838" cx="98.221"  cy="41.457" r="1.197"/>
    </g>
    <g  id="E13pin">
     <path fill="#BFBFBF"  d="M95.826,48.657c0,-1.322,1.072,-2.394,2.396,-2.394c1.322,0,2.393,1.07,2.393,2.394"/>
     <path fill="#E6E6E6"  d="M100.614,48.657c0,1.322,-1.07,2.395,-2.393,2.395c-1.323,0,-2.396,-1.072,-2.396,-2.395"/>
     <circle fill="#383838" cx="98.221"  cy="48.657" r="1.197"/>
    </g>
    <g  id="A14pin">
     <path fill="#BFBFBF"  d="M103.028,19.858c0,-1.322,1.07,-2.396,2.393,-2.396c1.323,0,2.396,1.072,2.396,2.396"/>
     <path fill="#E6E6E6"  d="M107.815,19.858c0,1.319,-1.072,2.393,-2.396,2.393c-1.322,0,-2.393,-1.072,-2.393,-2.393l0,0"/>
     <circle fill="#383838" cx="105.42"  cy="19.857" r="1.196"/>
    </g>
    <g  id="B14pin">
     <path fill="#BFBFBF"  d="M103.028,27.058c0,-1.322,1.07,-2.396,2.393,-2.396c1.323,0,2.396,1.071,2.396,2.396"/>
     <path fill="#E6E6E6"  d="M107.815,27.058c0,1.321,-1.072,2.393,-2.396,2.393c-1.322,0,-2.393,-1.07,-2.393,-2.393"/>
     <circle fill="#383838" cx="105.42"  cy="27.057" r="1.197"/>
    </g>
    <g  id="C14pin">
     <path fill="#BFBFBF"  d="M103.028,34.256c0,-1.319,1.07,-2.394,2.393,-2.394c1.323,0,2.396,1.072,2.396,2.394"/>
     <path fill="#E6E6E6"  d="M107.815,34.256c0,1.322,-1.072,2.396,-2.396,2.396c-1.322,0,-2.393,-1.072,-2.393,-2.396l0,0"/>
     <circle fill="#383838" cx="105.42"  cy="34.257" r="1.196"/>
    </g>
    <g  id="D14pin">
     <path fill="#BFBFBF"  d="M103.028,41.457c0,-1.322,1.07,-2.396,2.393,-2.396c1.323,0,2.396,1.072,2.396,2.396"/>
     <path fill="#E6E6E6"  d="M107.815,41.457c0,1.321,-1.072,2.394,-2.396,2.394c-1.322,0,-2.393,-1.07,-2.393,-2.394"/>
     <circle fill="#383838" cx="105.42"  cy="41.457" r="1.197"/>
    </g>
    <g  id="E14pin">
     <path fill="#BFBFBF"  d="M103.028,48.657c0,-1.322,1.07,-2.394,2.393,-2.394c1.323,0,2.396,1.07,2.396,2.394"/>
     <path fill="#E6E6E6"  d="M107.815,48.657c0,1.322,-1.072,2.395,-2.396,2.395c-1.322,0,-2.393,-1.072,-2.393,-2.395"/>
     <circle fill="#383838" cx="105.42"  cy="48.657" r="1.197"/>
    </g>
    <g  id="A15pin">
     <path fill="#BFBFBF"  d="M110.227,19.858c0.002,-1.322,1.075,-2.394,2.397,-2.392c1.318,0.002,2.387,1.07,2.39,2.392"/>
     <path fill="#E6E6E6"  d="M115.014,19.858c0.002,1.319,-1.068,2.395,-2.39,2.396c-1.322,0.002,-2.396,-1.067,-2.397,-2.392c0,-0.002,0,-0.004,0,-0.006"/>
     <circle fill="#383838" cx="112.621"  cy="19.857" r="1.196"/>
    </g>
    <g  id="B15pin">
     <path fill="#BFBFBF"  d="M110.227,27.058c0.002,-1.322,1.075,-2.394,2.397,-2.392c1.318,0.002,2.387,1.071,2.39,2.392"/>
     <path fill="#E6E6E6"  d="M115.014,27.058c0.002,1.321,-1.068,2.395,-2.39,2.396c-1.322,0.002,-2.396,-1.068,-2.397,-2.39c0,-0.004,0,-0.006,0,-0.008"/>
     <circle fill="#383838" cx="112.621"  cy="27.057" r="1.197"/>
    </g>
    <g  id="C15pin">
     <path fill="#BFBFBF"  d="M110.227,34.256c0.002,-1.319,1.075,-2.392,2.397,-2.39c1.318,0.003,2.387,1.07,2.39,2.39"/>
     <path fill="#E6E6E6"  d="M115.014,34.256c0.002,1.322,-1.068,2.396,-2.39,2.397c-1.322,0.002,-2.396,-1.067,-2.397,-2.391c0,-0.002,0,-0.004,0,-0.008"/>
     <circle fill="#383838" cx="112.621"  cy="34.257" r="1.196"/>
    </g>
    <g  id="D15pin">
     <path fill="#BFBFBF"  d="M110.227,41.457c0.002,-1.322,1.075,-2.394,2.397,-2.392c1.318,0.002,2.387,1.07,2.39,2.392"/>
     <path fill="#E6E6E6"  d="M115.014,41.457c0.002,1.321,-1.068,2.396,-2.39,2.396c-1.322,0.002,-2.396,-1.067,-2.397,-2.391c0,-0.002,0,-0.004,0,-0.006"/>
     <circle fill="#383838" cx="112.621"  cy="41.457" r="1.197"/>
    </g>
    <g  id="E15pin">
     <path fill="#BFBFBF"  d="M110.227,48.657c0.002,-1.322,1.075,-2.394,2.397,-2.391c1.318,0.002,2.387,1.071,2.39,2.391"/>
     <path fill="#E6E6E6"  d="M115.014,48.657c0.002,1.322,-1.068,2.395,-2.39,2.396c-1.322,0.005,-2.396,-1.065,-2.397,-2.389c0,-0.002,0,-0.007,0,-0.009"/>
     <circle fill="#383838" cx="112.621"  cy="48.657" r="1.197"/>
    </g>
    <g  id="A16pin">
     <path fill="#BFBFBF"  d="M117.428,19.858c0.003,-1.322,1.074,-2.394,2.396,-2.392c1.318,0.002,2.389,1.07,2.391,2.392"/>
     <path fill="#E6E6E6"  d="M122.215,19.858c0.002,1.319,-1.067,2.395,-2.391,2.396s-2.395,-1.067,-2.396,-2.392c0,-0.002,0,-0.004,0,-0.006"/>
     <circle fill="#383838" cx="119.821"  cy="19.857" r="1.196"/>
    </g>
    <g  id="B16pin">
     <path fill="#BFBFBF"  d="M117.428,27.058c0.003,-1.322,1.074,-2.394,2.396,-2.392c1.318,0.002,2.389,1.071,2.391,2.392"/>
     <path fill="#E6E6E6"  d="M122.215,27.058c0.002,1.321,-1.067,2.395,-2.391,2.396s-2.395,-1.068,-2.396,-2.39c0,-0.004,0,-0.006,0,-0.008"/>
     <circle fill="#383838" cx="119.821"  cy="27.057" r="1.197"/>
    </g>
    <g  id="C16pin">
     <path fill="#BFBFBF"  d="M117.428,34.256c0.003,-1.319,1.074,-2.392,2.396,-2.39c1.318,0.003,2.389,1.07,2.391,2.39"/>
     <path fill="#E6E6E6"  d="M122.215,34.256c0.002,1.322,-1.067,2.396,-2.391,2.397s-2.395,-1.067,-2.396,-2.391c0,-0.002,0,-0.004,0,-0.008"/>
     <circle fill="#383838" cx="119.821"  cy="34.257" r="1.196"/>
    </g>
    <g  id="D16pin">
     <path fill="#BFBFBF"  d="M117.428,41.457c0.003,-1.322,1.074,-2.394,2.396,-2.392c1.318,0.002,2.389,1.07,2.391,2.392"/>
     <path fill="#E6E6E6"  d="M122.215,41.457c0.002,1.321,-1.067,2.396,-2.391,2.396c-1.323,0.002,-2.395,-1.067,-2.396,-2.391c0,-0.002,0,-0.004,0,-0.006"/>
     <circle fill="#383838" cx="119.821"  cy="41.457" r="1.197"/>
    </g>
    <g  id="E16pin">
     <path fill="#BFBFBF"  d="M117.428,48.657c0.003,-1.322,1.074,-2.394,2.396,-2.391c1.318,0.002,2.389,1.071,2.391,2.391"/>
     <path fill="#E6E6E6"  d="M122.215,48.657c0.002,1.322,-1.067,2.395,-2.391,2.396c-1.322,0.005,-2.395,-1.065,-2.396,-2.389c0,-0.002,0,-0.007,0,-0.009"/>
     <circle fill="#383838" cx="119.821"  cy="48.657" r="1.197"/>
    </g>
    <g  id="A17pin">
     <path fill="#BFBFBF"  d="M124.627,19.858c0.002,-1.322,1.074,-2.394,2.396,-2.392c1.319,0.002,2.389,1.07,2.391,2.392"/>
     <path fill="#E6E6E6"  d="M129.413,19.858c0.002,1.319,-1.067,2.395,-2.391,2.396c-1.322,0.002,-2.395,-1.067,-2.396,-2.392c0,-0.002,0,-0.004,0,-0.006"/>
     <circle fill="#383838" cx="127.02"  cy="19.857" r="1.196"/>
    </g>
    <g  id="B17pin">
     <path fill="#BFBFBF"  d="M124.627,27.058c0.002,-1.322,1.074,-2.394,2.396,-2.392c1.319,0.002,2.389,1.071,2.391,2.392"/>
     <path fill="#E6E6E6"  d="M129.413,27.058c0.002,1.321,-1.067,2.395,-2.391,2.396c-1.322,0.002,-2.395,-1.068,-2.396,-2.39c0,-0.004,0,-0.006,0,-0.008"/>
     <circle fill="#383838" cx="127.02"  cy="27.057" r="1.197"/>
    </g>
    <g  id="C17pin">
     <path fill="#BFBFBF"  d="M124.627,34.256c0.002,-1.319,1.074,-2.392,2.396,-2.39c1.319,0.003,2.389,1.07,2.391,2.39"/>
     <path fill="#E6E6E6"  d="M129.413,34.256c0.002,1.322,-1.067,2.396,-2.391,2.397c-1.322,0.002,-2.395,-1.067,-2.396,-2.391c0,-0.002,0,-0.004,0,-0.008"/>
     <circle fill="#383838" cx="127.02"  cy="34.257" r="1.196"/>
    </g>
    <g  id="D17pin">
     <path fill="#BFBFBF"  d="M124.627,41.457c0.002,-1.322,1.074,-2.394,2.396,-2.392c1.319,0.002,2.389,1.07,2.391,2.392"/>
     <path fill="#E6E6E6"  d="M129.413,41.457c0.002,1.321,-1.067,2.396,-2.391,2.396c-1.322,0.002,-2.395,-1.067,-2.396,-2.391c0,-0.002,0,-0.004,0,-0.006"/>
     <circle fill="#383838" cx="127.02"  cy="41.457" r="1.197"/>
    </g>
    <g  id="E17pin">
     <path fill="#BFBFBF"  d="M124.627,48.657c0.002,-1.322,1.074,-2.394,2.396,-2.391c1.319,0.002,2.389,1.071,2.391,2.391"/>
     <path fill="#E6E6E6"  d="M129.413,48.657c0.002,1.322,-1.067,2.395,-2.391,2.396c-1.322,0.005,-2.395,-1.065,-2.396,-2.389c0,-0.002,0,-0.007,0,-0.009"/>
     <circle fill="#383838" cx="127.02"  cy="48.657" r="1.197"/>
    </g>
    <g  id="F1pin">
     <path fill="#BFBFBF"  d="M9.427,70.256c0,-1.321,1.071,-2.394,2.395,-2.394s2.394,1.07,2.394,2.394"/>
     <path fill="#E6E6E6"  d="M14.214,70.256c0,1.322,-1.07,2.396,-2.394,2.396s-2.395,-1.072,-2.395,-2.396l0,0"/>
     <circle fill="#383838" cx="11.822"  cy="70.257" r="1.196"/>
    </g>
    <g  id="G1pin">
     <path fill="#BFBFBF"  d="M9.427,77.457c0,-1.322,1.071,-2.396,2.395,-2.396s2.394,1.072,2.394,2.396"/>
     <path fill="#E6E6E6"  d="M14.214,77.457c0,1.321,-1.07,2.394,-2.394,2.394s-2.395,-1.07,-2.395,-2.394l0,0"/>
     <circle fill="#383838" cx="11.822"  cy="77.456" r="1.196"/>
    </g>
    <g  id="H1pin">
     <path fill="#BFBFBF"  d="M9.427,84.657c0,-1.322,1.071,-2.394,2.395,-2.394s2.394,1.07,2.394,2.394"/>
     <path fill="#E6E6E6"  d="M14.214,84.657c0,1.322,-1.07,2.395,-2.394,2.395s-2.395,-1.072,-2.395,-2.395"/>
     <circle fill="#383838" cx="11.822"  cy="84.657" r="1.197"/>
    </g>
    <g  id="I1pin">
     <path fill="#BFBFBF"  d="M9.427,91.858c0,-1.322,1.071,-2.396,2.395,-2.396s2.394,1.072,2.394,2.396"/>
     <path fill="#E6E6E6"  d="M14.214,91.858c0,1.319,-1.07,2.393,-2.394,2.393s-2.395,-1.072,-2.395,-2.393l0,0"/>
     <circle fill="#383838" cx="11.822"  cy="91.857" r="1.196"/>
    </g>
    <g  id="J1pin">
     <path fill="#BFBFBF"  d="M9.427,99.058c0,-1.322,1.071,-2.396,2.395,-2.396s2.394,1.071,2.394,2.396"/>
     <path fill="#E6E6E6"  d="M14.214,99.058c0,1.321,-1.07,2.393,-2.394,2.393s-2.395,-1.07,-2.395,-2.393l0,0"/>
     <circle fill="#383838" cx="11.822"  cy="99.057" r="1.197"/>
    </g>
    <g  id="F2pin">
     <path fill="#BFBFBF"  d="M16.627,70.256c0,-1.321,1.071,-2.394,2.395,-2.394c1.32,0,2.394,1.07,2.394,2.394"/>
     <path fill="#E6E6E6"  d="M21.414,70.256c0,1.322,-1.07,2.396,-2.393,2.396s-2.396,-1.069,-2.396,-2.393c0,-0.002,0,-0.002,0,-0.004"/>
     <circle fill="#383838" cx="19.022"  cy="70.257" r="1.196"/>
    </g>
    <g  id="G2pin">
     <path fill="#BFBFBF"  d="M16.627,77.457c0,-1.322,1.071,-2.396,2.395,-2.396c1.32,0,2.394,1.072,2.394,2.396"/>
     <path fill="#E6E6E6"  d="M21.414,77.457c0,1.321,-1.07,2.396,-2.393,2.396c-1.323,0,-2.396,-1.07,-2.396,-2.394l0,-0.002"/>
     <circle fill="#383838" cx="19.022"  cy="77.456" r="1.196"/>
    </g>
    <g  id="H2pin">
     <path fill="#BFBFBF"  d="M16.627,84.657c0,-1.322,1.071,-2.394,2.395,-2.394c1.32,0,2.394,1.07,2.394,2.394"/>
     <path fill="#E6E6E6"  d="M21.414,84.657c0,1.322,-1.07,2.395,-2.393,2.395c-1.322,0.002,-2.396,-1.07,-2.396,-2.393c0,0,0,0,0,-0.002"/>
     <circle fill="#383838" cx="19.022"  cy="84.657" r="1.197"/>
    </g>
    <g  id="I2pin">
     <path fill="#BFBFBF"  d="M16.627,91.858c0,-1.322,1.071,-2.396,2.395,-2.396c1.32,0,2.394,1.072,2.394,2.396"/>
     <path fill="#E6E6E6"  d="M21.414,91.858c0,1.319,-1.07,2.393,-2.393,2.395c-1.322,0,-2.396,-1.07,-2.396,-2.393c0,-0.002,0,-0.002,0,-0.002"/>
     <circle fill="#383838" cx="19.022"  cy="91.857" r="1.196"/>
    </g>
    <g  id="J2pin">
     <path fill="#BFBFBF"  d="M16.627,99.058c0,-1.322,1.071,-2.396,2.395,-2.396c1.32,0,2.394,1.071,2.394,2.396"/>
     <path fill="#E6E6E6"  d="M21.414,99.058c0,1.321,-1.07,2.395,-2.393,2.395c-1.323,0,-2.396,-1.07,-2.396,-2.393l0,-0.002"/>
     <circle fill="#383838" cx="19.022"  cy="99.057" r="1.197"/>
    </g>
    <g  id="F3pin">
     <path fill="#BFBFBF"  d="M23.826,70.256c0,-1.321,1.072,-2.394,2.395,-2.394c1.321,0,2.395,1.07,2.395,2.394"/>
     <path fill="#E6E6E6"  d="M28.615,70.256c0,1.322,-1.072,2.396,-2.395,2.396c-1.321,0,-2.395,-1.072,-2.395,-2.396"/>
     <circle fill="#383838" cx="26.221"  cy="70.257" r="1.196"/>
    </g>
    <g  id="G3pin">
     <path fill="#BFBFBF"  d="M23.826,77.457c0,-1.322,1.072,-2.396,2.395,-2.396c1.321,0,2.395,1.072,2.395,2.396"/>
     <path fill="#E6E6E6"  d="M28.615,77.457c0,1.321,-1.072,2.394,-2.395,2.394c-1.321,0,-2.395,-1.07,-2.395,-2.394"/>
     <circle fill="#383838" cx="26.221"  cy="77.456" r="1.196"/>
    </g>
    <g  id="H3pin">
     <path fill="#BFBFBF"  d="M23.826,84.657c0,-1.322,1.072,-2.394,2.395,-2.394c1.321,0,2.395,1.07,2.395,2.394"/>
     <path fill="#E6E6E6"  d="M28.615,84.657c0,1.322,-1.072,2.395,-2.395,2.395c-1.321,0,-2.395,-1.072,-2.395,-2.395l0,0"/>
     <circle fill="#383838" cx="26.221"  cy="84.657" r="1.197"/>
    </g>
    <g  id="I3pin">
     <path fill="#BFBFBF"  d="M23.826,91.858c0,-1.322,1.072,-2.396,2.395,-2.396c1.321,0,2.395,1.072,2.395,2.396"/>
     <path fill="#E6E6E6"  d="M28.615,91.858c0,1.319,-1.072,2.393,-2.395,2.393c-1.321,0,-2.395,-1.072,-2.395,-2.393"/>
     <circle fill="#383838" cx="26.221"  cy="91.857" r="1.196"/>
    </g>
    <g  id="J3pin">
     <path fill="#BFBFBF"  d="M23.826,99.058c0,-1.322,1.072,-2.396,2.395,-2.396c1.321,0,2.395,1.071,2.395,2.396"/>
     <path fill="#E6E6E6"  d="M28.615,99.058c0,1.321,-1.072,2.393,-2.395,2.393c-1.321,0,-2.395,-1.07,-2.395,-2.393l0,0"/>
     <circle fill="#383838" cx="26.221"  cy="99.057" r="1.197"/>
    </g>
    <g  id="F4pin">
     <path fill="#BFBFBF"  d="M31.028,70.256c0,-1.321,1.072,-2.394,2.394,-2.394c1.322,0,2.395,1.07,2.395,2.394"/>
     <path fill="#E6E6E6"  d="M35.815,70.256c0,1.322,-1.071,2.396,-2.395,2.396c-1.32,0,-2.394,-1.072,-2.394,-2.396"/>
     <circle fill="#383838" cx="33.42"  cy="70.257" r="1.196"/>
    </g>
    <g  id="G4pin">
     <path fill="#BFBFBF"  d="M31.028,77.457c0,-1.322,1.072,-2.396,2.394,-2.396c1.322,0,2.395,1.072,2.395,2.396"/>
     <path fill="#E6E6E6"  d="M35.815,77.457c0,1.321,-1.071,2.394,-2.395,2.394c-1.32,0,-2.394,-1.07,-2.394,-2.394"/>
     <circle fill="#383838" cx="33.42"  cy="77.456" r="1.196"/>
    </g>
    <g  id="H4pin">
     <path fill="#BFBFBF"  d="M31.028,84.657c0,-1.322,1.072,-2.394,2.394,-2.394c1.322,0,2.395,1.07,2.395,2.394"/>
     <path fill="#E6E6E6"  d="M35.815,84.657c0,1.322,-1.071,2.395,-2.395,2.395c-1.32,0,-2.394,-1.072,-2.394,-2.395l0,0"/>
     <circle fill="#383838" cx="33.42"  cy="84.657" r="1.197"/>
    </g>
    <g  id="I4pin">
     <path fill="#BFBFBF"  d="M31.028,91.858c0,-1.322,1.072,-2.396,2.394,-2.396c1.322,0,2.395,1.072,2.395,2.396"/>
     <path fill="#E6E6E6"  d="M35.815,91.858c0,1.319,-1.071,2.393,-2.395,2.393c-1.32,0,-2.394,-1.072,-2.394,-2.393"/>
     <circle fill="#383838" cx="33.42"  cy="91.857" r="1.196"/>
    </g>
    <g  id="J4pin">
     <path fill="#BFBFBF"  d="M31.028,99.058c0,-1.322,1.072,-2.396,2.394,-2.396c1.322,0,2.395,1.071,2.395,2.396"/>
     <path fill="#E6E6E6"  d="M35.815,99.058c0,1.321,-1.071,2.393,-2.395,2.393c-1.32,0,-2.394,-1.07,-2.394,-2.393l0,0"/>
     <circle fill="#383838" cx="33.42"  cy="99.057" r="1.197"/>
    </g>
    <g  id="F5pin">
     <path fill="#BFBFBF"  d="M38.228,70.256c0,-1.321,1.07,-2.394,2.394,-2.394s2.395,1.07,2.395,2.394"/>
     <path fill="#E6E6E6"  d="M43.015,70.256c0,1.322,-1.071,2.396,-2.395,2.396s-2.394,-1.072,-2.394,-2.396"/>
     <circle fill="#383838" cx="40.62"  cy="70.257" r="1.196"/>
    </g>
    <g  id="G5pin">
     <path fill="#BFBFBF"  d="M38.228,77.457c0,-1.322,1.07,-2.396,2.394,-2.396s2.395,1.072,2.395,2.396"/>
     <path fill="#E6E6E6"  d="M43.015,77.457c0,1.321,-1.071,2.394,-2.395,2.394s-2.394,-1.07,-2.394,-2.394"/>
     <circle fill="#383838" cx="40.62"  cy="77.456" r="1.196"/>
    </g>
    <g  id="H5pin">
     <path fill="#BFBFBF"  d="M38.228,84.657c0,-1.322,1.07,-2.394,2.394,-2.394s2.395,1.07,2.395,2.394"/>
     <path fill="#E6E6E6"  d="M43.015,84.657c0,1.322,-1.071,2.395,-2.395,2.395s-2.394,-1.072,-2.394,-2.395l0,0"/>
     <circle fill="#383838" cx="40.62"  cy="84.657" r="1.197"/>
    </g>
    <g  id="I5pin">
     <path fill="#BFBFBF"  d="M38.228,91.858c0,-1.322,1.07,-2.396,2.394,-2.396s2.395,1.072,2.395,2.396"/>
     <path fill="#E6E6E6"  d="M43.015,91.858c0,1.319,-1.071,2.393,-2.395,2.393s-2.394,-1.072,-2.394,-2.393"/>
     <circle fill="#383838" cx="40.62"  cy="91.857" r="1.196"/>
    </g>
    <g  id="J5pin">
     <path fill="#BFBFBF"  d="M38.228,99.058c0,-1.322,1.07,-2.396,2.394,-2.396s2.395,1.071,2.395,2.396"/>
     <path fill="#E6E6E6"  d="M43.015,99.058c0,1.321,-1.071,2.393,-2.395,2.393s-2.394,-1.07,-2.394,-2.393l0,0"/>
     <circle fill="#383838" cx="40.62"  cy="99.057" r="1.197"/>
    </g>
    <g  id="F6pin">
     <path fill="#BFBFBF"  d="M45.427,70.256c0,-1.321,1.071,-2.394,2.395,-2.394s2.394,1.07,2.394,2.394"/>
     <path fill="#E6E6E6"  d="M50.214,70.256c0,1.322,-1.07,2.396,-2.394,2.396s-2.395,-1.072,-2.395,-2.396"/>
     <circle fill="#383838" cx="47.822"  cy="70.257" r="1.196"/>
    </g>
    <g  id="G6pin">
     <path fill="#BFBFBF"  d="M45.427,77.457c0,-1.322,1.071,-2.396,2.395,-2.396s2.394,1.072,2.394,2.396"/>
     <path fill="#E6E6E6"  d="M50.214,77.457c0,1.321,-1.07,2.394,-2.394,2.394s-2.395,-1.07,-2.395,-2.394"/>
     <circle fill="#383838" cx="47.822"  cy="77.456" r="1.196"/>
    </g>
    <g  id="H6pin">
     <path fill="#BFBFBF"  d="M45.427,84.657c0,-1.322,1.071,-2.394,2.395,-2.394s2.394,1.07,2.394,2.394"/>
     <path fill="#E6E6E6"  d="M50.214,84.657c0,1.322,-1.07,2.395,-2.394,2.395s-2.395,-1.072,-2.395,-2.395l0,0"/>
     <circle fill="#383838" cx="47.822"  cy="84.657" r="1.197"/>
    </g>
    <g  id="I6pin">
     <path fill="#BFBFBF"  d="M45.427,91.858c0,-1.322,1.071,-2.396,2.395,-2.396s2.394,1.072,2.394,2.396"/>
     <path fill="#E6E6E6"  d="M50.214,91.858c0,1.319,-1.07,2.393,-2.394,2.393s-2.395,-1.072,-2.395,-2.393"/>
     <circle fill="#383838" cx="47.822"  cy="91.857" r="1.196"/>
    </g>
    <g  id="J6pin">
     <path fill="#BFBFBF"  d="M45.427,99.058c0,-1.322,1.071,-2.396,2.395,-2.396s2.394,1.071,2.394,2.396"/>
     <path fill="#E6E6E6"  d="M50.214,99.058c0,1.321,-1.07,2.393,-2.394,2.393s-2.395,-1.07,-2.395,-2.393l0,0"/>
     <circle fill="#383838" cx="47.822"  cy="99.057" r="1.197"/>
    </g>
    <g  id="F7pin">
     <path fill="#BFBFBF"  d="M52.627,70.256c0,-1.321,1.071,-2.394,2.395,-2.394c1.32,0,2.394,1.07,2.394,2.394"/>
     <path fill="#E6E6E6"  d="M57.414,70.256c0,1.322,-1.072,2.396,-2.394,2.396c-1.322,0,-2.395,-1.072,-2.395,-2.396"/>
     <circle fill="#383838" cx="55.022"  cy="70.257" r="1.196"/>
    </g>
    <g  id="G7pin">
     <path fill="#BFBFBF"  d="M52.627,77.457c0,-1.322,1.071,-2.396,2.395,-2.396c1.32,0,2.394,1.072,2.394,2.396"/>
     <path fill="#E6E6E6"  d="M57.414,77.457c0,1.321,-1.072,2.394,-2.394,2.394c-1.322,0,-2.395,-1.07,-2.395,-2.394"/>
     <circle fill="#383838" cx="55.022"  cy="77.456" r="1.196"/>
    </g>
    <g  id="H7pin">
     <path fill="#BFBFBF"  d="M52.627,84.657c0,-1.322,1.071,-2.394,2.395,-2.394c1.32,0,2.394,1.07,2.394,2.394"/>
     <path fill="#E6E6E6"  d="M57.414,84.657c0,1.322,-1.072,2.395,-2.394,2.395c-1.322,0,-2.395,-1.072,-2.395,-2.395l0,0"/>
     <circle fill="#383838" cx="55.022"  cy="84.657" r="1.197"/>
    </g>
    <g  id="I7pin">
     <path fill="#BFBFBF"  d="M52.627,91.858c0,-1.322,1.071,-2.396,2.395,-2.396c1.32,0,2.394,1.072,2.394,2.396"/>
     <path fill="#E6E6E6"  d="M57.414,91.858c0,1.319,-1.072,2.393,-2.394,2.393c-1.322,0,-2.395,-1.072,-2.395,-2.393"/>
     <circle fill="#383838" cx="55.022"  cy="91.857" r="1.196"/>
    </g>
    <g  id="J7pin">
     <path fill="#BFBFBF"  d="M52.627,99.058c0,-1.322,1.071,-2.396,2.395,-2.396c1.32,0,2.394,1.071,2.394,2.396"/>
     <path fill="#E6E6E6"  d="M57.414,99.058c0,1.321,-1.072,2.393,-2.394,2.393c-1.322,0,-2.395,-1.07,-2.395,-2.393l0,0"/>
     <circle fill="#383838" cx="55.022"  cy="99.057" r="1.197"/>
    </g>
    <g  id="F8pin">
     <path fill="#BFBFBF"  d="M59.826,70.256c0,-1.321,1.072,-2.394,2.395,-2.394c1.321,0,2.393,1.07,2.393,2.394"/>
     <path fill="#E6E6E6"  d="M64.614,70.256c0,1.322,-1.07,2.396,-2.393,2.396s-2.395,-1.072,-2.395,-2.396"/>
     <circle fill="#383838" cx="62.221"  cy="70.257" r="1.196"/>
    </g>
    <g  id="G8pin">
     <path fill="#BFBFBF"  d="M59.826,77.457c0,-1.322,1.072,-2.396,2.395,-2.396c1.321,0,2.393,1.072,2.393,2.396"/>
     <path fill="#E6E6E6"  d="M64.614,77.457c0,1.321,-1.07,2.394,-2.393,2.394s-2.395,-1.07,-2.395,-2.394"/>
     <circle fill="#383838" cx="62.221"  cy="77.456" r="1.196"/>
    </g>
    <g  id="H8pin">
     <path fill="#BFBFBF"  d="M59.826,84.657c0,-1.322,1.072,-2.394,2.395,-2.394c1.321,0,2.393,1.07,2.393,2.394"/>
     <path fill="#E6E6E6"  d="M64.614,84.657c0,1.322,-1.07,2.395,-2.393,2.395s-2.395,-1.072,-2.395,-2.395l0,0"/>
     <circle fill="#383838" cx="62.221"  cy="84.657" r="1.197"/>
    </g>
    <g  id="I8pin">
     <path fill="#BFBFBF"  d="M59.826,91.858c0,-1.322,1.072,-2.396,2.395,-2.396c1.321,0,2.393,1.072,2.393,2.396"/>
     <path fill="#E6E6E6"  d="M64.614,91.858c0,1.319,-1.07,2.393,-2.393,2.393s-2.395,-1.072,-2.395,-2.393"/>
     <circle fill="#383838" cx="62.221"  cy="91.857" r="1.196"/>
    </g>
    <g  id="J8pin">
     <path fill="#BFBFBF"  d="M59.826,99.058c0,-1.322,1.072,-2.396,2.395,-2.396c1.321,0,2.393,1.071,2.393,2.396"/>
     <path fill="#E6E6E6"  d="M64.614,99.058c0,1.321,-1.07,2.393,-2.393,2.393s-2.395,-1.07,-2.395,-2.393l0,0"/>
     <circle fill="#383838" cx="62.221"  cy="99.057" r="1.197"/>
    </g>
    <g  id="F9pin">
     <path fill="#BFBFBF"  d="M67.028,70.256c0,-1.321,1.072,-2.394,2.393,-2.394c1.322,0,2.396,1.07,2.396,2.394"/>
     <path fill="#E6E6E6"  d="M71.815,70.256c0,1.322,-1.072,2.396,-2.396,2.396c-1.319,0,-2.393,-1.072,-2.393,-2.396"/>
     <circle fill="#383838" cx="69.42"  cy="70.257" r="1.196"/>
    </g>
    <g  id="G9pin">
     <path fill="#BFBFBF"  d="M67.028,77.457c0,-1.322,1.072,-2.396,2.393,-2.396c1.322,0,2.396,1.072,2.396,2.396"/>
     <path fill="#E6E6E6"  d="M71.815,77.457c0,1.321,-1.072,2.394,-2.396,2.394c-1.319,0,-2.393,-1.07,-2.393,-2.394"/>
     <circle fill="#383838" cx="69.42"  cy="77.456" r="1.196"/>
    </g>
    <g  id="H9pin">
     <path fill="#BFBFBF"  d="M67.028,84.657c0,-1.322,1.072,-2.394,2.393,-2.394c1.322,0,2.396,1.07,2.396,2.394"/>
     <path fill="#E6E6E6"  d="M71.815,84.657c0,1.322,-1.072,2.395,-2.396,2.395c-1.319,0,-2.393,-1.072,-2.393,-2.395l0,0"/>
     <circle fill="#383838" cx="69.42"  cy="84.657" r="1.197"/>
    </g>
    <g  id="I9pin">
     <path fill="#BFBFBF"  d="M67.028,91.858c0,-1.322,1.072,-2.396,2.393,-2.396c1.322,0,2.396,1.072,2.396,2.396"/>
     <path fill="#E6E6E6"  d="M71.815,91.858c0,1.319,-1.072,2.393,-2.396,2.393c-1.319,0,-2.393,-1.072,-2.393,-2.393"/>
     <circle fill="#383838" cx="69.42"  cy="91.857" r="1.196"/>
    </g>
    <g  id="J9pin">
     <path fill="#BFBFBF"  d="M67.028,99.058c0,-1.322,1.072,-2.396,2.393,-2.396c1.322,0,2.396,1.071,2.396,2.396"/>
     <path fill="#E6E6E6"  d="M71.815,99.058c0,1.321,-1.072,2.393,-2.396,2.393c-1.319,0,-2.393,-1.07,-2.393,-2.393l0,0"/>
     <circle fill="#383838" cx="69.42"  cy="99.057" r="1.197"/>
    </g>
    <g  id="F10pin">
     <path fill="#BFBFBF"  d="M74.227,70.256c0,-1.321,1.071,-2.394,2.395,-2.394s2.394,1.07,2.394,2.394"/>
     <path fill="#E6E6E6"  d="M79.014,70.256c0,1.322,-1.07,2.396,-2.394,2.396s-2.395,-1.072,-2.395,-2.396"/>
     <circle fill="#383838" cx="76.621"  cy="70.257" r="1.196"/>
    </g>
    <g  id="G10pin">
     <path fill="#BFBFBF"  d="M74.227,77.457c0,-1.322,1.071,-2.396,2.395,-2.396s2.394,1.072,2.394,2.396"/>
     <path fill="#E6E6E6"  d="M79.014,77.457c0,1.321,-1.07,2.394,-2.394,2.394s-2.395,-1.07,-2.395,-2.394"/>
     <circle fill="#383838" cx="76.621"  cy="77.456" r="1.196"/>
    </g>
    <g  id="H10pin">
     <path fill="#BFBFBF"  d="M74.227,84.657c0,-1.322,1.071,-2.394,2.395,-2.394s2.394,1.07,2.394,2.394"/>
     <path fill="#E6E6E6"  d="M79.014,84.657c0,1.322,-1.07,2.395,-2.394,2.395s-2.395,-1.072,-2.395,-2.395l0,0"/>
     <circle fill="#383838" cx="76.621"  cy="84.657" r="1.197"/>
    </g>
    <g  id="I10pin">
     <path fill="#BFBFBF"  d="M74.227,91.858c0,-1.322,1.071,-2.396,2.395,-2.396s2.394,1.072,2.394,2.396"/>
     <path fill="#E6E6E6"  d="M79.014,91.858c0,1.319,-1.07,2.393,-2.394,2.393s-2.395,-1.072,-2.395,-2.393"/>
     <circle fill="#383838" cx="76.621"  cy="91.857" r="1.196"/>
    </g>
    <g  id="J10pin">
     <path fill="#BFBFBF"  d="M74.227,99.058c0,-1.322,1.071,-2.396,2.395,-2.396s2.394,1.071,2.394,2.396"/>
     <path fill="#E6E6E6"  d="M79.014,99.058c0,1.321,-1.07,2.393,-2.394,2.393s-2.395,-1.07,-2.395,-2.393l0,0"/>
     <circle fill="#383838" cx="76.621"  cy="99.057" r="1.197"/>
    </g>
    <g  id="F11pin">
     <path fill="#BFBFBF"  d="M81.428,70.256c0,-1.321,1.07,-2.394,2.394,-2.394s2.395,1.07,2.395,2.394"/>
     <path fill="#E6E6E6"  d="M86.215,70.256c0,1.322,-1.071,2.396,-2.395,2.396s-2.394,-1.072,-2.394,-2.396"/>
     <circle fill="#383838" cx="83.821"  cy="70.257" r="1.196"/>
    </g>
    <g  id="G11pin">
     <path fill="#BFBFBF"  d="M81.428,77.457c0,-1.322,1.07,-2.396,2.394,-2.396s2.395,1.072,2.395,2.396"/>
     <path fill="#E6E6E6"  d="M86.215,77.457c0,1.321,-1.071,2.394,-2.395,2.394s-2.394,-1.07,-2.394,-2.394"/>
     <circle fill="#383838" cx="83.821"  cy="77.456" r="1.196"/>
    </g>
    <g  id="H11pin">
     <path fill="#BFBFBF"  d="M81.428,84.657c0,-1.322,1.07,-2.394,2.394,-2.394s2.395,1.07,2.395,2.394"/>
     <path fill="#E6E6E6"  d="M86.215,84.657c0,1.322,-1.071,2.395,-2.395,2.395s-2.394,-1.072,-2.394,-2.395l0,0"/>
     <circle fill="#383838" cx="83.821"  cy="84.657" r="1.197"/>
    </g>
    <g  id="I11pin">
     <path fill="#BFBFBF"  d="M81.428,91.858c0,-1.322,1.07,-2.396,2.394,-2.396s2.395,1.072,2.395,2.396"/>
     <path fill="#E6E6E6"  d="M86.215,91.858c0,1.319,-1.071,2.393,-2.395,2.393s-2.394,-1.072,-2.394,-2.393"/>
     <circle fill="#383838" cx="83.821"  cy="91.857" r="1.196"/>
    </g>
    <g  id="J11pin">
     <path fill="#BFBFBF"  d="M81.428,99.058c0,-1.322,1.07,-2.396,2.394,-2.396s2.395,1.071,2.395,2.396"/>
     <path fill="#E6E6E6"  d="M86.215,99.058c0,1.321,-1.071,2.393,-2.395,2.393s-2.394,-1.07,-2.394,-2.393l0,0"/>
     <circle fill="#383838" cx="83.821"  cy="99.057" r="1.197"/>
    </g>
    <g  id="F12pin">
     <path fill="#BFBFBF"  d="M88.627,70.256c0,-1.321,1.072,-2.394,2.396,-2.394c1.319,0,2.393,1.07,2.393,2.394"/>
     <path fill="#E6E6E6"  d="M93.414,70.256c0,1.322,-1.072,2.396,-2.393,2.396c-1.322,0,-2.396,-1.072,-2.396,-2.396"/>
     <circle fill="#383838" cx="91.022"  cy="70.257" r="1.196"/>
    </g>
    <g  id="G12pin">
     <path fill="#BFBFBF"  d="M88.627,77.457c0,-1.322,1.072,-2.396,2.396,-2.396c1.319,0,2.393,1.072,2.393,2.396"/>
     <path fill="#E6E6E6"  d="M93.414,77.457c0,1.321,-1.072,2.394,-2.393,2.394c-1.322,0,-2.396,-1.07,-2.396,-2.394"/>
     <circle fill="#383838" cx="91.022"  cy="77.456" r="1.196"/>
    </g>
    <g  id="H12pin">
     <path fill="#BFBFBF"  d="M88.627,84.657c0,-1.322,1.072,-2.394,2.396,-2.394c1.319,0,2.393,1.07,2.393,2.394"/>
     <path fill="#E6E6E6"  d="M93.414,84.657c0,1.322,-1.072,2.395,-2.393,2.395c-1.322,0,-2.396,-1.072,-2.396,-2.395l0,0"/>
     <circle fill="#383838" cx="91.022"  cy="84.657" r="1.197"/>
    </g>
    <g  id="I12pin">
     <path fill="#BFBFBF"  d="M88.627,91.858c0,-1.322,1.072,-2.396,2.396,-2.396c1.319,0,2.393,1.072,2.393,2.396"/>
     <path fill="#E6E6E6"  d="M93.414,91.858c0,1.319,-1.072,2.393,-2.393,2.393c-1.322,0,-2.396,-1.072,-2.396,-2.393"/>
     <circle fill="#383838" cx="91.022"  cy="91.857" r="1.196"/>
    </g>
    <g  id="J12pin">
     <path fill="#BFBFBF"  d="M88.627,99.058c0,-1.322,1.072,-2.396,2.396,-2.396c1.319,0,2.393,1.071,2.393,2.396"/>
     <path fill="#E6E6E6"  d="M93.414,99.058c0,1.321,-1.072,2.393,-2.393,2.393c-1.322,0,-2.396,-1.07,-2.396,-2.393l0,0"/>
     <circle fill="#383838" cx="91.022"  cy="99.057" r="1.197"/>
    </g>
    <g  id="F13pin">
     <path fill="#BFBFBF"  d="M95.826,70.256c0,-1.321,1.072,-2.394,2.396,-2.394c1.322,0,2.393,1.07,2.393,2.394"/>
     <path fill="#E6E6E6"  d="M100.614,70.256c0,1.322,-1.07,2.396,-2.393,2.396c-1.323,0,-2.396,-1.072,-2.396,-2.396"/>
     <circle fill="#383838" cx="98.221"  cy="70.257" r="1.196"/>
    </g>
    <g  id="G13pin">
     <path fill="#BFBFBF"  d="M95.826,77.457c0,-1.322,1.072,-2.396,2.396,-2.396c1.322,0,2.393,1.072,2.393,2.396"/>
     <path fill="#E6E6E6"  d="M100.614,77.457c0,1.321,-1.07,2.394,-2.393,2.394c-1.323,0,-2.396,-1.07,-2.396,-2.394"/>
     <circle fill="#383838" cx="98.221"  cy="77.456" r="1.196"/>
    </g>
    <g  id="H13pin">
     <path fill="#BFBFBF"  d="M95.826,84.657c0,-1.322,1.072,-2.394,2.396,-2.394c1.322,0,2.393,1.07,2.393,2.394"/>
     <path fill="#E6E6E6"  d="M100.614,84.657c0,1.322,-1.07,2.395,-2.393,2.395c-1.323,0,-2.396,-1.072,-2.396,-2.395l0,0"/>
     <circle fill="#383838" cx="98.221"  cy="84.657" r="1.197"/>
    </g>
    <g  id="I13pin">
     <path fill="#BFBFBF"  d="M95.826,91.858c0,-1.322,1.072,-2.396,2.396,-2.396c1.322,0,2.393,1.072,2.393,2.396"/>
     <path fill="#E6E6E6"  d="M100.614,91.858c0,1.319,-1.07,2.393,-2.393,2.393c-1.323,0,-2.396,-1.072,-2.396,-2.393"/>
     <circle fill="#383838" cx="98.221"  cy="91.857" r="1.196"/>
    </g>
    <g  id="J13pin">
     <path fill="#BFBFBF"  d="M95.826,99.058c0,-1.322,1.072,-2.396,2.396,-2.396c1.322,0,2.393,1.071,2.393,2.396"/>
     <path fill="#E6E6E6"  d="M100.614,99.058c0,1.321,-1.07,2.393,-2.393,2.393c-1.323,0,-2.396,-1.07,-2.396,-2.393l0,0"/>
     <circle fill="#383838" cx="98.221"  cy="99.057" r="1.197"/>
    </g>
    <g  id="F14pin">
     <path fill="#BFBFBF"  d="M103.028,70.256c0,-1.321,1.07,-2.394,2.393,-2.394c1.323,0,2.396,1.07,2.396,2.394"/>
     <path fill="#E6E6E6"  d="M107.815,70.256c0,1.322,-1.072,2.396,-2.396,2.396c-1.322,0,-2.393,-1.072,-2.393,-2.396"/>
     <circle fill="#383838" cx="105.42"  cy="70.257" r="1.196"/>
    </g>
    <g  id="G14pin">
     <path fill="#BFBFBF"  d="M103.028,77.457c0,-1.322,1.07,-2.396,2.393,-2.396c1.323,0,2.396,1.072,2.396,2.396"/>
     <path fill="#E6E6E6"  d="M107.815,77.457c0,1.321,-1.072,2.394,-2.396,2.394c-1.322,0,-2.393,-1.07,-2.393,-2.394"/>
     <circle fill="#383838" cx="105.42"  cy="77.456" r="1.196"/>
    </g>
    <g  id="H14pin">
     <path fill="#BFBFBF"  d="M103.028,84.657c0,-1.322,1.07,-2.394,2.393,-2.394c1.323,0,2.396,1.07,2.396,2.394"/>
     <path fill="#E6E6E6"  d="M107.815,84.657c0,1.322,-1.072,2.395,-2.396,2.395c-1.322,0,-2.393,-1.072,-2.393,-2.395l0,0"/>
     <circle fill="#383838" cx="105.42"  cy="84.657" r="1.197"/>
    </g>
    <g  id="I14pin">
     <path fill="#BFBFBF"  d="M103.028,91.858c0,-1.322,1.07,-2.396,2.393,-2.396c1.323,0,2.396,1.072,2.396,2.396"/>
     <path fill="#E6E6E6"  d="M107.815,91.858c0,1.319,-1.072,2.393,-2.396,2.393c-1.322,0,-2.393,-1.072,-2.393,-2.393"/>
     <circle fill="#383838" cx="105.42"  cy="91.857" r="1.196"/>
    </g>
    <g  id="J14pin">
     <path fill="#BFBFBF"  d="M103.028,99.058c0,-1.322,1.07,-2.396,2.393,-2.396c1.323,0,2.396,1.071,2.396,2.396"/>
     <path fill="#E6E6E6"  d="M107.815,99.058c0,1.321,-1.072,2.393,-2.396,2.393c-1.322,0,-2.393,-1.07,-2.393,-2.393l0,0"/>
     <circle fill="#383838" cx="105.42"  cy="99.057" r="1.197"/>
    </g>
    <g  id="F15pin">
     <path fill="#BFBFBF"  d="M110.227,70.256c0.002,-1.321,1.075,-2.392,2.397,-2.39c1.318,0.003,2.387,1.07,2.39,2.39"/>
     <path fill="#E6E6E6"  d="M115.014,70.256c0.002,1.322,-1.068,2.396,-2.39,2.397c-1.322,0.002,-2.396,-1.067,-2.397,-2.391c0,-0.002,0,-0.004,0,-0.008"/>
     <circle fill="#383838" cx="112.621"  cy="70.257" r="1.196"/>
    </g>
    <g  id="G15pin">
     <path fill="#BFBFBF"  d="M110.227,77.457c0.002,-1.322,1.075,-2.394,2.397,-2.392c1.318,0.002,2.387,1.07,2.39,2.392"/>
     <path fill="#E6E6E6"  d="M115.014,77.457c0.002,1.321,-1.068,2.396,-2.39,2.396c-1.322,0.002,-2.396,-1.067,-2.397,-2.391c0,-0.002,0,-0.004,0,-0.006"/>
     <circle fill="#383838" cx="112.621"  cy="77.456" r="1.196"/>
    </g>
    <g  id="H15pin">
     <path fill="#BFBFBF"  d="M110.227,84.657c0.002,-1.322,1.075,-2.394,2.397,-2.391c1.318,0.002,2.387,1.071,2.39,2.391"/>
     <path fill="#E6E6E6"  d="M115.014,84.657c0.002,1.322,-1.068,2.395,-2.39,2.396c-1.322,0.002,-2.396,-1.065,-2.397,-2.389c0,-0.002,0,-0.007,0,-0.009"/>
     <circle fill="#383838" cx="112.621"  cy="84.657" r="1.197"/>
    </g>
    <g  id="I15pin">
     <path fill="#BFBFBF"  d="M110.227,91.858c0.002,-1.322,1.075,-2.394,2.397,-2.392c1.318,0.002,2.387,1.07,2.39,2.392"/>
     <path fill="#E6E6E6"  d="M115.014,91.858c0.002,1.319,-1.068,2.395,-2.39,2.396c-1.322,0.002,-2.396,-1.067,-2.397,-2.392c0,-0.002,0,-0.004,0,-0.006"/>
     <circle fill="#383838" cx="112.621"  cy="91.857" r="1.196"/>
    </g>
    <g  id="J15pin">
     <path fill="#BFBFBF"  d="M110.227,99.058c0.002,-1.322,1.075,-2.394,2.397,-2.392c1.318,0.002,2.387,1.069,2.39,2.392"/>
     <path fill="#E6E6E6"  d="M115.014,99.058c0.002,1.321,-1.068,2.395,-2.39,2.396c-1.322,0.002,-2.396,-1.068,-2.397,-2.39c0,-0.004,0,-0.006,0,-0.008"/>
     <circle fill="#383838" cx="112.621"  cy="99.057" r="1.197"/>
    </g>
    <g  id="F16pin">
     <path fill="#BFBFBF"  d="M117.428,70.256c0.003,-1.321,1.074,-2.392,2.396,-2.39c1.318,0.003,2.389,1.07,2.391,2.39"/>
     <path fill="#E6E6E6"  d="M122.215,70.256c0.002,1.322,-1.067,2.396,-2.391,2.397s-2.395,-1.067,-2.396,-2.391c0,-0.002,0,-0.004,0,-0.008"/>
     <circle fill="#383838" cx="119.821"  cy="70.257" r="1.196"/>
    </g>
    <g  id="G16pin">
     <path fill="#BFBFBF"  d="M117.428,77.457c0.003,-1.322,1.074,-2.394,2.396,-2.392c1.318,0.002,2.389,1.07,2.391,2.392"/>
     <path fill="#E6E6E6"  d="M122.215,77.457c0.002,1.321,-1.067,2.396,-2.391,2.396c-1.323,0.002,-2.395,-1.067,-2.396,-2.391c0,-0.002,0,-0.004,0,-0.006"/>
     <circle fill="#383838" cx="119.821"  cy="77.456" r="1.196"/>
    </g>
    <g  id="H16pin">
     <path fill="#BFBFBF"  d="M117.428,84.657c0.003,-1.322,1.074,-2.394,2.396,-2.391c1.318,0.002,2.389,1.071,2.391,2.391"/>
     <path fill="#E6E6E6"  d="M122.215,84.657c0.002,1.322,-1.067,2.395,-2.391,2.396s-2.395,-1.065,-2.396,-2.389c0,-0.002,0,-0.007,0,-0.009"/>
     <circle fill="#383838" cx="119.821"  cy="84.657" r="1.197"/>
    </g>
    <g  id="I16pin">
     <path fill="#BFBFBF"  d="M117.428,91.858c0.003,-1.322,1.074,-2.394,2.396,-2.392c1.318,0.002,2.389,1.07,2.391,2.392"/>
     <path fill="#E6E6E6"  d="M122.215,91.858c0.002,1.319,-1.067,2.395,-2.391,2.396s-2.395,-1.067,-2.396,-2.392c0,-0.002,0,-0.004,0,-0.006"/>
     <circle fill="#383838" cx="119.821"  cy="91.857" r="1.196"/>
    </g>
    <g  id="J16pin">
     <path fill="#BFBFBF"  d="M117.428,99.058c0.003,-1.322,1.074,-2.394,2.396,-2.392c1.318,0.002,2.389,1.069,2.391,2.392"/>
     <path fill="#E6E6E6"  d="M122.215,99.058c0.002,1.321,-1.067,2.395,-2.391,2.396s-2.395,-1.068,-2.396,-2.39c0,-0.004,0,-0.006,0,-0.008"/>
     <circle fill="#383838" cx="119.821"  cy="99.057" r="1.197"/>
    </g>
    <g  id="F17pin">
     <path fill="#BFBFBF"  d="M124.627,70.256c0.002,-1.321,1.074,-2.392,2.396,-2.39c1.319,0.003,2.389,1.07,2.391,2.39"/>
     <path fill="#E6E6E6"  d="M129.413,70.256c0.002,1.322,-1.067,2.396,-2.391,2.397c-1.322,0.002,-2.395,-1.067,-2.396,-2.391c0,-0.002,0,-0.004,0,-0.008"/>
     <circle fill="#383838" cx="127.02"  cy="70.257" r="1.196"/>
    </g>
    <g  id="G17pin">
     <path fill="#BFBFBF"  d="M124.627,77.457c0.002,-1.322,1.074,-2.394,2.396,-2.392c1.319,0.002,2.389,1.07,2.391,2.392"/>
     <path fill="#E6E6E6"  d="M129.413,77.457c0.002,1.321,-1.067,2.396,-2.391,2.396c-1.322,0.002,-2.395,-1.067,-2.396,-2.391c0,-0.002,0,-0.004,0,-0.006"/>
     <circle fill="#383838" cx="127.02"  cy="77.456" r="1.196"/>
    </g>
    <g  id="H17pin">
     <path fill="#BFBFBF"  d="M124.627,84.657c0.002,-1.322,1.074,-2.394,2.396,-2.391c1.319,0.002,2.389,1.071,2.391,2.391"/>
     <path fill="#E6E6E6"  d="M129.413,84.657c0.002,1.322,-1.067,2.395,-2.391,2.396c-1.322,0.002,-2.395,-1.065,-2.396,-2.389c0,-0.002,0,-0.007,0,-0.009"/>
     <circle fill="#383838" cx="127.02"  cy="84.657" r="1.197"/>
    </g>
    <g  id="I17pin">
     <path fill="#BFBFBF"  d="M124.627,91.858c0.002,-1.322,1.074,-2.394,2.396,-2.392c1.319,0.002,2.389,1.07,2.391,2.392"/>
     <path fill="#E6E6E6"  d="M129.413,91.858c0.002,1.319,-1.067,2.395,-2.391,2.396c-1.322,0.002,-2.395,-1.067,-2.396,-2.392c0,-0.002,0,-0.004,0,-0.006"/>
     <circle fill="#383838" cx="127.02"  cy="91.857" r="1.196"/>
    </g>
    <g  id="J17pin">
     <path fill="#BFBFBF"  d="M124.627,99.058c0.002,-1.322,1.074,-2.394,2.396,-2.392c1.319,0.002,2.389,1.069,2.391,2.392"/>
     <path fill="#E6E6E6"  d="M129.413,99.058c0.002,1.321,-1.067,2.395,-2.391,2.396c-1.322,0.002,-2.395,-1.068,-2.396,-2.39c0,-0.004,0,-0.006,0,-0.008"/>
     <circle fill="#383838" cx="127.02"  cy="99.057" r="1.197"/>
    </g>
   </g>
  </g>
 </g>
</svg>
